<?xml version="1.0" standalone="no"?>
<!DOCTYPE svg PUBLIC "-//W3C//DTD SVG 1.1//EN" "http://www.w3.org/Graphics/SVG/1.1/DTD/svg11.dtd" >
<svg xmlns="http://www.w3.org/2000/svg">
<metadata></metadata>
<defs>
<font id="SSForecast" >
<font-face font-family="SS Forecast" units-per-em="2048" ascent="2176" descent="-640" />
<missing-glyph  />
<glyph  horiz-adv-x="2048"  />
<glyph unicode="&#x22c6;" horiz-adv-x="2048" d="M1934 1239l-455 -467l108 -658l-563 311l-562 -311l107 658l-455 467l629 96l281 599l281 -599z" />
<glyph unicode="&#x2600;" horiz-adv-x="2048" d="M1024 626q165 0 281.5 116.5t116.5 281.5t-116.5 281.5t-281.5 116.5t-281.5 -116.5t-116.5 -281.5t116.5 -281.5t281.5 -116.5zM1793 921l231 -150q15 -10 21 -27t1 -34q-13 -36 -53 -38l-279 7q-91 1 -128 -51q-33 -47 -5 -119l88 -237q11 -14 11 -32
q0 -23 -16.5 -38.5t-38.5 -15.5q-16 -2 -33 10l-221 162q-67 49 -130 30t-87 -95l-78 -255q-12 -38 -52 -38q-39 0 -51 38l-79 255q-24 76 -87 95t-130 -30l-221 -162q-32 -24 -64 1q-31 23 -18 62l93 250q28 72 -5 119q-36 51 -121 51l-286 -7q-40 2 -53 38q-12 39 23 61
l230 150q70 47 70 105t-70 105l-230 150q-35 22 -23 62q6 17 20.5 27.5t32.5 9.5l279 -7h1q91 0 127 51q33 47 5 119l-93 251q-14 37 18 62q14 10 32 10t32 -10l221 -162q67 -49 130 -30t87 95l79 255q7 22 29 30t44.5 0t29.5 -30l78 -255q24 -76 87 -95t130 30l221 162
q14 10 32 10t32 -10q32 -25 18 -62l-93 -251q-28 -72 5 -119q36 -51 121 -51l286 7q18 1 32.5 -9.5t20.5 -27.5q5 -18 -1 -35t-21 -27l-231 -150q-70 -47 -70 -105t70 -105z" />
<glyph unicode="&#x2601;" horiz-adv-x="2048" d="M1702 1237q151 -37 248.5 -159.5t97.5 -281.5q0 -188 -133.5 -321.5t-321.5 -133.5h-1081q-139 0 -257 68.5t-186.5 186.5t-68.5 257q0 212 150 362t362 150q37 0 79 -8q-22 -82 -22 -162q0 -24 16.5 -40.5t40.5 -16.5q23 0 40 16.5t17 40.5q0 139 68.5 257t186.5 186.5
t257 68.5q200 0 345.5 -136t161.5 -334z" />
<glyph unicode="&#x2602;" horiz-adv-x="2048" d="M569 910q0 278 61 514t166 373t228 137t228 -137t166 -373t61 -514h-910zM728 1890q-126 -148 -199.5 -406t-73.5 -574h-455q0 171 54.5 330.5t151 286t231 221.5t291.5 142zM1320 1890q157 -47 291.5 -142t231 -221.5t151 -286t54.5 -330.5h-455q0 316 -73.5 574
t-199.5 406zM910 796h228v-341q0 -141 -100 -241t-242 -100q-141 0 -241 100t-100 241q0 47 33.5 80.5t80.5 33.5t80.5 -33.5t33.5 -80.5t33 -80.5t80 -33.5t80.5 33.5t33.5 80.5v341z" />
<glyph unicode="&#x2607;" horiz-adv-x="2048" d="M1820 1252l-1592 -1024l568 796h-568l568 796h797l-455 -568h682z" />
<glyph unicode="&#x2614;" horiz-adv-x="2048" d="M1650 796h-1195q-188 0 -321.5 133.5t-133.5 322.5q0 188 133.5 321.5t321.5 133.5q77 0 152 -27q-38 -100 -38 -201q0 -23 16.5 -40t40.5 -17q23 0 40 17t17 40q0 189 133 322t322 133q159 0 282 -98.5t159 -249.5q40 7 71 7q165 0 281.5 -116.5t116.5 -281.5
t-116.5 -282t-281.5 -117zM1024 569q13 -27 32 -69.5t50.5 -129t31.5 -120.5q0 -56 -33.5 -96t-80.5 -40t-80.5 40t-33.5 96q0 34 28.5 113.5t57.5 142.5zM569 569q13 -27 32 -69.5t50.5 -129t31.5 -120.5q0 -56 -33.5 -96t-80.5 -40t-80.5 40t-33.5 96q0 34 28.5 113.5
t56.5 142.5zM1479 569q13 -27 32 -69.5t50.5 -129t31.5 -120.5q0 -56 -33.5 -96t-80.5 -40t-80.5 40t-33.5 96q0 34 28.5 113.5t56.5 142.5z" />
<glyph unicode="&#x26a0;" horiz-adv-x="2048" d="M1778 606q32 -61 40 -119t-8.5 -104.5t-53 -81.5t-94.5 -54t-130 -19h-1016q-72 0 -130 19t-94.5 54t-53 81.5t-8.5 104.5t40 119l555 1058q83 156 199 156t199 -156zM1138 910v455q0 47 -33.5 80.5t-80.5 33.5t-80.5 -33.5t-33.5 -80.5v-455q0 -47 33.5 -80.5
t80.5 -33.5t80.5 33.5t33.5 80.5zM1024 455q47 0 80.5 33.5t33.5 80.5t-33.5 80.5t-80.5 33.5t-80.5 -33.5t-33.5 -80.5t33.5 -80.5t80.5 -33.5z" />
<glyph unicode="&#x26c5;" horiz-adv-x="2048" d="M2048 1392q5 -32 -23 -45l-194 -90q-58 -28 -66 -73q-6 -46 43 -89l161 -141q24 -20 10 -49q-12 -26 -45 -24l-214 36q-35 7 -64 -1q-45 100 -129 181q41 76 41 162q0 141 -100 241t-241 100q-142 0 -241.5 -100t-99.5 -241q0 -33 6 -65q-109 -54 -183 -140
q-28 12 -46 15l-221 25q-31 7 -36 35q-5 31 24 45l193 91q60 27 66 73q6 45 -43 88l-160 141q-11 9 -14 23t3 27q15 28 45 23l214 -36h1q71 -11 103 25q31 32 17 91l-44 203q-7 31 21 46q27 15 49 -7l153 -149q46 -45 96.5 -37.5t76.5 63.5l89 188q12 25 43.5 20.5
t35.5 -31.5l33 -205q10 -61 56.5 -83t102.5 9l189 100q27 15 49 -7t7 -50l-99 -182q-29 -52 -9 -93q21 -43 87 -52l221 -26q14 -1 24 -11t12 -24zM1651 796q165 0 281.5 -116.5t116.5 -281.5t-116.5 -281.5t-281.5 -116.5h-1195q-188 0 -321.5 133.5t-133.5 321.5
q0 189 133.5 322t321.5 133q77 0 152 -27q-38 -98 -38 -200q0 -24 16.5 -40.5t40.5 -16.5q23 0 40 16.5t17 40.5q0 188 133 321.5t322 133.5q158 0 282 -100q123 -97 159 -249q40 7 71 7z" />
<glyph unicode="&#x26c6;" horiz-adv-x="2048" d="M1650 910h-1195q-188 0 -321.5 133.5t-133.5 321.5q0 189 133.5 322t321.5 133q77 0 152 -27q-38 -98 -38 -200q0 -24 16.5 -40.5t40.5 -16.5q23 0 40 16.5t17 40.5q0 188 133 321.5t322 133.5q159 0 282 -98.5t159 -249.5q40 7 71 7q165 0 281.5 -117t116.5 -282
q0 -164 -116.5 -281t-281.5 -117zM341 796q114 -243 114 -318q0 -57 -33.5 -97t-80.5 -40t-80 40t-33 97q0 33 28 112.5t56 142.5zM1252 796q113 -243 113 -318q0 -57 -33 -97t-80 -40t-80.5 40t-33.5 97q0 33 28.5 112.5t57.5 142.5zM796 796q114 -243 114 -318
q0 -57 -33.5 -97t-80.5 -40t-80 40t-33 97q0 33 28.5 112.5t56.5 142.5zM1707 796q113 -243 113 -318q0 -57 -33 -97t-80 -40t-80.5 40t-33.5 97q0 33 28.5 112.5t56.5 142.5zM569 455q114 -243 114 -318q0 -57 -33.5 -97t-80.5 -40t-80.5 40t-33.5 97q0 33 28.5 112.5
t56.5 142.5zM1024 455q114 -243 114 -318q0 -57 -33.5 -97t-80.5 -40t-80.5 40t-33.5 97q0 33 28.5 112.5t57.5 142.5zM1479 455q114 -243 114 -318q0 -57 -33.5 -97t-80.5 -40t-80.5 40t-33.5 97q0 33 28.5 112.5t56.5 142.5z" />
<glyph unicode="&#x26c8;" horiz-adv-x="2048" d="M1650 910h-1195q-188 0 -321.5 133.5t-133.5 321.5q0 189 133.5 322t321.5 133q77 0 152 -27q-38 -98 -38 -200q0 -24 16.5 -40.5t40.5 -16.5q23 0 40 16.5t17 40.5q0 188 133 321.5t322 133.5q159 0 282 -98.5t159 -249.5q40 7 71 7q165 0 281.5 -117t116.5 -282
t-116.5 -281.5t-281.5 -116.5zM1258 796l-169 -211h390l-910 -585l325 455h-325l244 341h445z" />
<glyph unicode="&#x26f0;" horiz-adv-x="2048" d="M802 1040l-190 258l298 522l326 -568h-237zM2046 683h-353l-433 757l162 267zM1049 1138h252l521 -910h-1820l549 962l240 -328z" />
<glyph unicode="&#x2744;" horiz-adv-x="2048" d="M1832 1126q42 0 72 -30t30 -72t-30 -72t-72 -30h-562l398 -397q30 -30 30 -72.5t-30 -72.5q-31 -29 -73 -29q-41 0 -72 29l-397 398v-562q0 -42 -29.5 -72t-72.5 -30t-72.5 30t-29.5 72v562l-397 -398q-30 -30 -72 -30q-43 0 -73 30t-30 72.5t30 72.5l398 397h-562
q-42 0 -72 30t-30 72t30 72t72 30h562l-398 397q-29 30 -29 72.5t29 71.5q30 30 72.5 30t72.5 -30l397 -397v562q0 42 29.5 72t72.5 30t72.5 -30t29.5 -72v-562l397 397q30 30 72.5 30t71.5 -30q30 -29 30 -71.5t-30 -72.5l-397 -397h562z" />
<glyph unicode="&#xe1b0;" horiz-adv-x="2048" d="M2048 1603l-142 -146l33 -205l-175 97l-176 -97l33 205l-142 146l197 30l88 187l87 -187zM569 1603l-142 -146l33 -205l-176 97l-175 -97l33 205l-142 146l197 30l87 187l88 -187zM1593 931l-285 -292l68 -411l-352 194l-352 -194l68 411l-285 292l393 60l176 374
l176 -374z" />
<glyph unicode="&#xe671;" horiz-adv-x="2048" d="M1024 1820q162 0 309.5 -63t254 -169.5t169.5 -254t63 -309.5t-63 -309.5t-169.5 -254t-254 -169.5t-309.5 -63t-309.5 63t-254 169.5t-169.5 254t-63 309.5t63 309.5t169.5 254t254 169.5t309.5 63zM1024 341q138 0 264.5 54.5t218 146t146 218t54.5 264.5t-54.5 264.5
t-146 218t-218 146t-264.5 54.5t-264.5 -54.5t-218 -146t-146 -218t-54.5 -264.5t54.5 -264.5t146 -218t218 -146t264.5 -54.5zM1288 1143q38 -83 22 -171.5t-80 -152.5q-82 -83 -206 -83t-206 83q-64 64 -80 152.5t22 171.5q6 15 21 44.5t82.5 137t160.5 234.5
q93 -127 159 -231t85 -144zM1024 883q59 0 100.5 41.5t41.5 100.5t-41.5 100.5t-100.5 41.5t-100.5 -41.5t-41.5 -100.5t41.5 -100.5t100.5 -41.5z" />
<glyph unicode="&#xf201;" horiz-adv-x="2048" d="M1365 753q114 -130 114 -298q0 -188 -133.5 -321.5t-321.5 -133.5t-321.5 133.5t-133.5 321.5q0 168 114 298v954q0 141 100 241t241 100t241 -100t100 -241v-954zM1024 114q141 0 241 100t100 241q0 150 -113 253v999q0 94 -67 160.5t-161 66.5t-161 -66.5t-67 -160.5
v-999q-113 -103 -113 -253q0 -141 100 -241t241 -100zM1138 650q52 -30 83 -81.5t31 -113.5q0 -94 -67 -160.5t-161 -66.5t-161 66.5t-67 160.5q0 62 31 113.5t83 81.5v602q0 47 33.5 80t80.5 33t80.5 -33t33.5 -80v-602z" />
<glyph unicode="&#xf205;" horiz-adv-x="2048" d="M1365 753q114 -130 114 -298q0 -188 -133.5 -321.5t-321.5 -133.5t-321.5 133.5t-133.5 321.5q0 168 114 298v954q0 141 100 241t241 100t241 -100t100 -241v-954zM1024 114q141 0 241 100t100 241q0 150 -113 253v999q0 94 -67 160.5t-161 66.5t-161 -66.5t-67 -160.5
v-999q-113 -103 -113 -253q0 -141 100 -241t241 -100zM1138 650q52 -30 83 -81.5t31 -113.5q0 -94 -67 -160.5t-161 -66.5t-161 66.5t-67 160.5q0 62 31 113.5t83 81.5v1057q0 47 33.5 80t80.5 33t80.5 -33t33.5 -80v-1057z" />
<glyph unicode="&#xf206;" horiz-adv-x="2048" d="M1365 753q114 -130 114 -298q0 -188 -133.5 -321.5t-321.5 -133.5t-321.5 133.5t-133.5 321.5q0 168 114 298v954q0 141 100 241t241 100t241 -100t100 -241v-954zM1024 114q141 0 241 100t100 241q0 150 -113 253v999q0 94 -67 160.5t-161 66.5t-161 -66.5t-67 -160.5
v-999q-113 -103 -113 -253q0 -141 100 -241t241 -100zM1138 650q52 -30 83 -81.5t31 -113.5q0 -94 -67 -160.5t-161 -66.5t-161 66.5t-67 160.5q0 61 31 112.5t83 82.5v829q0 47 33.5 80.5t80.5 33.5t80.5 -33.5t33.5 -80.5v-829z" />
<glyph unicode="&#xf208;" horiz-adv-x="2048" d="M1365 753q114 -130 114 -298q0 -188 -133.5 -321.5t-321.5 -133.5t-321.5 133.5t-133.5 321.5q0 168 114 298v954q0 141 100 241t241 100t241 -100t100 -241v-954zM1024 114q141 0 241 100t100 241q0 150 -113 253v999q0 94 -67 160.5t-161 66.5t-161 -66.5t-67 -160.5
v-999q-113 -103 -113 -253q0 -141 100 -241t241 -100zM1138 650q52 -30 83 -81.5t31 -113.5q0 -94 -67 -160.5t-161 -66.5t-161 66.5t-67 160.5q0 61 31 112.5t83 82.5v374q0 47 33.5 80.5t80.5 33.5t80.5 -33.5t33.5 -80.5v-374z" />
<glyph unicode="&#xf209;" horiz-adv-x="2048" d="M1365 753q114 -130 114 -298q0 -188 -133.5 -321.5t-321.5 -133.5t-321.5 133.5t-133.5 321.5q0 168 114 298v954q0 141 100 241t241 100t241 -100t100 -241v-954zM1024 114q141 0 241 100t100 241q0 150 -113 253v999q0 94 -67 160.5t-161 66.5t-161 -66.5t-67 -160.5
v-999q-113 -103 -113 -253q0 -141 100 -241t241 -100zM1024 683q94 0 161 -66.5t67 -161.5q0 -94 -67 -160.5t-161 -66.5t-161 66.5t-67 160.5q0 95 67 161.5t161 66.5z" />
<glyph unicode="&#xf20a;" horiz-adv-x="2048" d="M1935 752q114 -130 114 -298q0 -188 -133.5 -321.5t-321.5 -133.5t-321.5 133.5t-133.5 321.5q0 168 114 298v954q0 141 100 241t241 100t241 -100t100 -241v-954zM1594 113q141 0 241 100t100 241q0 150 -114 253v999q0 94 -66.5 160.5t-160.5 66.5t-161 -66.5
t-67 -160.5v-999q-113 -103 -113 -253q0 -141 99.5 -241t241.5 -100zM1708 649q51 -30 82 -81.5t31 -113.5q0 -94 -66.5 -160.5t-160.5 -66.5t-161 66.5t-67 160.5q0 62 31 113.5t83 81.5v1057q0 47 33.5 80t80.5 33t80.5 -33t33.5 -80v-1057zM776 1041q118 0 201 83.5
t83 201.5t-83 201t-201 83t-201.5 -83t-83.5 -201t83.5 -201.5t201.5 -83.5zM1068 1732q23 -17 71 -10v-768q-45 3 -73.5 -24t-27.5 -75l6 -193q2 -29 -26 -39q-28 -9 -44 14l-114 157q-35 46 -82.5 44.5t-81.5 -50.5l-114 -164q-15 -24 -44 -15q-27 10 -27 39l5 194
q2 56 -32 80q-35 26 -95 6l-194 -72q-30 -9 -45 14q-17 24 1 47l122 157q38 49 24 88q-13 40 -73 56l-193 49q-28 7 -30 36t27 39l193 61h1q62 21 75 65q11 39 -24 83l-124 149q-17 24 -2 47q17 24 44 16l190 -60q57 -17 95.5 10.5t37.5 85.5l-6 194q-1 26 27 35.5t44 -11.5
l114 -156q34 -47 81.5 -45.5t82.5 51.5l113 163q17 25 44 15q13 -4 20.5 -14.5t6.5 -23.5l-5 -194q-2 -55 32 -81z" />
<glyph unicode="&#xf20b;" horiz-adv-x="2048" d="M1934 753q114 -130 114 -298q0 -188 -133.5 -321.5t-321.5 -133.5t-321.5 133.5t-133.5 321.5q0 168 114 298v954q0 141 100 241t241 100t241 -100t100 -241v-954zM1593 114q141 0 241 100t100 241q0 150 -114 253v999q0 94 -66.5 160.5t-160.5 66.5t-161 -66.5
t-67 -160.5v-999q-113 -103 -113 -253q0 -141 99.5 -241t241.5 -100zM776 1041q118 0 201 83.5t83 201.5t-83 201t-201 83t-201.5 -83t-83.5 -201t83.5 -201.5t201.5 -83.5zM1067 1733q23 -17 71 -10v-768q-45 3 -73.5 -24t-27.5 -75l6 -193q2 -29 -26 -39q-28 -9 -44 14
l-114 157q-35 46 -82.5 44.5t-81.5 -50.5l-114 -164q-15 -24 -44 -15q-27 10 -27 39l5 194q2 56 -32 80q-35 26 -95 6l-194 -72q-30 -9 -45 14q-17 24 1 47l122 157q38 49 24 88q-13 40 -73 56l-193 49q-28 7 -30 36t27 39l193 61h1q62 21 75 65q11 39 -24 83l-124 149
q-17 24 -2 47q17 24 44 16l190 -60q57 -17 95.5 10.5t37.5 85.5l-6 194q-1 26 27 35.5t44 -11.5l114 -156q34 -47 81.5 -45.5t82.5 51.5l113 163q17 25 44 15q13 -4 20.5 -14.5t6.5 -23.5l-5 -194q-2 -55 32 -81zM1593 683q94 0 160.5 -66.5t66.5 -161.5q0 -94 -66.5 -160.5
t-160.5 -66.5t-161 66.5t-67 160.5q0 95 66.5 161.5t161.5 66.5z" />
<glyph unicode="&#xf20c;" horiz-adv-x="2048" d="M1934 753q114 -130 114 -298q0 -188 -133.5 -321.5t-321.5 -133.5t-321.5 133.5t-133.5 321.5q0 168 114 298v954q0 141 100 241t241 100t241 -100t100 -241v-954zM1593 114q141 0 241 100t100 241q0 150 -114 253v999q0 94 -66.5 160.5t-160.5 66.5t-161 -66.5
t-67 -160.5v-999q-113 -103 -113 -253q0 -141 99.5 -241t241.5 -100zM808 1336l278 -278q21 -20 21 -50t-21 -50q-21 -21 -51 -21q-29 0 -50 21l-278 277v-392q0 -30 -20.5 -51t-50.5 -21t-50.5 21t-20.5 51v392l-278 -278q-22 -20 -50 -20q-29 0 -51 20q-21 21 -21 50.5
t21 50.5l278 278h-393q-29 0 -50 21t-21 50q0 30 21 51t50 21h393l-278 277q-20 21 -20 50.5t20 50.5q21 21 50.5 21t50.5 -21l278 -278v393q0 29 20.5 50t50.5 21t50.5 -21t20.5 -50v-393l278 278q21 21 50.5 21t50.5 -21q20 -21 20 -50.5t-20 -50.5l-278 -277h330v-143
h-330zM1593 683q94 0 160.5 -66.5t66.5 -161.5q0 -94 -66.5 -160.5t-160.5 -66.5t-161 66.5t-67 160.5q0 95 66.5 161.5t161.5 66.5z" />
<glyph unicode="&#xf211;" horiz-adv-x="2048" d="M57 1536q-24 0 -40.5 16.5t-16.5 40.5q0 23 16.5 40t40.5 17h1934q24 0 40.5 -17t16.5 -40q0 -24 -16.5 -40.5t-40.5 -16.5h-1934zM1991 1422q24 0 40.5 -16.5t16.5 -40.5q0 -23 -16.5 -40t-40.5 -17h-1934q-24 0 -40.5 17t-16.5 40q0 24 16.5 40.5t40.5 16.5h1934z
M1991 1195q24 0 40.5 -17t16.5 -40q0 -24 -16.5 -40.5t-40.5 -16.5h-1934q-24 0 -40.5 16.5t-16.5 40.5q0 23 16.5 40t40.5 17h1934zM1991 967q24 0 40.5 -16.5t16.5 -40.5q0 -23 -16.5 -40t-40.5 -17h-1934q-24 0 -40.5 17t-16.5 40q0 24 16.5 40.5t40.5 16.5h1934z
M1991 740q24 0 40.5 -17t16.5 -40q0 -24 -16.5 -40.5t-40.5 -16.5h-1934q-24 0 -40.5 16.5t-16.5 40.5q0 23 16.5 40t40.5 17h1934zM1991 512q24 0 40.5 -16.5t16.5 -40.5q0 -23 -16.5 -40t-40.5 -17h-1934q-24 0 -40.5 17t-16.5 40q0 24 16.5 40.5t40.5 16.5h1934z" />
<glyph unicode="&#xf212;" horiz-adv-x="2048" d="M1024 1707q94 0 161 -66.5t67 -161.5q0 -94 -66.5 -160.5t-161.5 -66.5h-853q-24 0 -40.5 16.5t-16.5 39.5q0 24 16.5 40.5t40.5 16.5h657q-32 54 -32 114q0 95 67 161.5t161 66.5zM1707 1707q94 0 160.5 -67t66.5 -161t-66.5 -160.5t-160.5 -66.5h-430q44 49 67 113h167
q-32 54 -32 114q0 95 66.5 161.5t161.5 66.5zM1707 796q0 -94 -67 -160.5t-161 -66.5t-160.5 66.5t-66.5 160.5q0 60 31 114h-1112q-24 0 -40.5 17t-16.5 40q0 24 16.5 40.5t40.5 16.5h1308q95 0 161.5 -67t66.5 -161zM1252 455q0 -94 -66.5 -160.5t-161.5 -66.5
t-161.5 66.5t-66.5 160.5q0 60 32 114h-657q-24 0 -40.5 16.5t-16.5 40.5q0 23 16.5 40t40.5 17h853q94 0 161 -66.5t67 -161.5z" />
<glyph unicode="&#xf213;" horiz-adv-x="2048" d="M1577 1884q-109 -93 -155 -177h-1380q-44 146 -42 279q8 62 63 62h1531l30 -5q71 -23 10 -100q-21 -27 -57 -59zM1383 1593q-7 -59 12 -116t52 -96t66.5 -69.5t58.5 -45.5l24 -14h-1278q-154 155 -234 341h1299zM1764 1138q218 -167 268 -342h-891q-425 128 -695 342
h1318zM1357 683h691q-4 -172 -165 -342h-371q18 204 -155 342zM1369 0q82 117 119 228h267q-82 -64 -178.5 -121t-152.5 -82z" />
<glyph unicode="&#xf220;" horiz-adv-x="2048" d="M884 1024h-543q-141 0 -241 100t-100 241q0 142 100 242t241 100q39 0 90 -14q46 108 145 174.5t220 66.5t220.5 -66.5t145.5 -174.5q51 14 90 14q141 0 241 -100t100 -242q0 -90 -49 -172q-113 59 -236 59q-130 0 -242 -61.5t-182 -166.5zM1707 114h-967
q-165 0 -282 116.5t-117 281.5t117 281.5t282 116.5q38 0 85 -10q-29 -87 -29 -160q0 -24 17 -40.5t40 -16.5q24 0 40.5 16.5t16.5 40.5q0 164 117 281t281 117q149 0 260.5 -98t132.5 -244h6q141 0 241 -99.5t100 -241.5q0 -141 -100 -241t-241 -100z" />
<glyph unicode="&#xf221;" horiz-adv-x="2048" d="M1427 916q-62 138 -186 227.5t-278 103.5q-83 180 -35 366q30 112 100.5 203t173.5 151q145 83 320 81q14 0 25.5 -9t13.5 -22q3 -14 -4 -26t-20 -17q-140 -59 -211.5 -186.5t-43.5 -269.5q21 -111 96.5 -194.5t185 -120t226.5 -15.5q106 18 192 83q26 19 51 -1
q11 -8 14 -21.5t-4 -25.5q-80 -147 -222 -229q-94 -54 -201 -74q-96 -16 -193 -4zM1650 796q165 0 281.5 -116.5t116.5 -281.5t-116.5 -281.5t-281.5 -116.5h-1195q-188 0 -321.5 133.5t-133.5 321.5t133.5 321.5t321.5 133.5q20 0 60 -6q60 106 165 170t230 64
q188 0 321.5 -133.5t133.5 -321.5v-8q0 1 0.5 1t0.5 1q2 -22 18 -36.5t38 -14.5q24 0 40.5 16.5t16.5 40.5q0 14 -7 70q86 43 178 43z" />
<glyph unicode="&#xf222;" horiz-adv-x="2048" d="M886 1665q12 34 5 65l-43 197q-7 28 20 44q27 15 48 -6l148 -145q44 -44 93.5 -36.5t74.5 62.5l86 182q12 24 42.5 19.5t34.5 -30.5l32 -199q10 -59 54.5 -80t99.5 8l183 98q26 14 47 -7q22 -22 7 -49l-96 -176q-28 -51 -9 -90q22 -42 85 -51l214 -25q14 -1 24 -10.5
t12 -23.5q3 -30 -24 -43l-187 -88q-58 -27 -64 -70q-6 -44 41 -86l156 -137q24 -20 10 -48q-12 -25 -44 -23l-207 35h-30q-73 87 -170 134q48 67 60 149q20 140 -65 253.5t-224 132.5q-144 21 -258 -69q-66 73 -156 113zM422 796h-123q-124 0 -211.5 87.5t-87.5 211.5
t87.5 211.5t211.5 87.5q35 0 78 -12q40 94 127 152.5t193 58.5t192.5 -58t127.5 -153q43 12 78 12q114 0 197.5 -75.5t97.5 -187.5q-47 7 -82 7q-136 0 -252 -67t-185 -179q-76 18 -131 18q-178 0 -318 -114zM1707 0h-967q-165 0 -282 116.5t-117 281.5t117 281.5t282 116.5
q38 0 85 -10q-29 -87 -29 -160q0 -24 17 -40.5t40 -16.5q24 0 40.5 16.5t16.5 40.5q0 165 117 281.5t281 116.5q149 0 260.5 -98t132.5 -244q1 0 3 0.5t3 0.5q141 0 241 -100t100 -242q0 -141 -100 -241t-241 -100z" />
<glyph unicode="&#xf223;" horiz-adv-x="2048" d="M2028 1494q15 -12 19 -30.5t-5 -35.5q-58 -107 -167 -170t-233 -63q-78 0 -156 27q-32 95 -102.5 165t-165.5 100q-40 116 -10 236q47 173 205 264q105 61 234 61q23 0 38 -11.5t19 -30.5q4 -18 -5 -35t-27 -24q-91 -38 -137 -120.5t-28 -173.5q18 -95 96 -156.5
t180 -61.5q24 0 54 5q68 13 124 54q14 11 33.5 11t33.5 -11zM422 796h-123q-124 0 -211.5 87.5t-87.5 211.5t87.5 211.5t211.5 87.5q35 0 78 -12q40 94 127 152.5t193 58.5t192.5 -58t127.5 -153q43 12 78 12q114 0 197.5 -75.5t97.5 -187.5q-47 7 -82 7q-136 0 -252 -67
t-185 -179q-76 18 -131 18q-178 0 -318 -114zM1707 0h-967q-165 0 -282 116.5t-117 281.5t117 281.5t282 116.5q38 0 85 -10q-29 -87 -29 -160q0 -24 17 -40.5t40 -16.5q24 0 40.5 16.5t16.5 40.5q0 165 117 281.5t281 116.5q149 0 260.5 -98t132.5 -244q1 0 3 0.5t3 0.5
q141 0 241 -100t100 -242q0 -141 -100 -241t-241 -100z" />
<glyph unicode="&#xf225;" horiz-adv-x="2048" d="M1879 1436q-46 -27 -49 -66q0 -38 43 -69l145 -104q22 -15 12 -39q-7 -22 -35 -24l-180 12q-27 2 -55 -9q-45 75 -115 130q25 54 26 108q5 121 -77 210.5t-203 93.5q-90 4 -167 -44q-89 52 -186 66q0 20 -5 35l-54 164q-8 25 14 40q20 15 41 -1l139 -111
q41 -33 82.5 -22.5t58.5 59.5l57 162q8 22 34.5 21t32.5 -23l44 -167q13 -50 54 -64t84 16l147 99q22 15 42 -2q20 -18 10 -40l-67 -159q-19 -44 0 -78q22 -33 77 -36l185 -2q26 0 33 -26q7 -25 -16 -39zM1365 1251q142 0 242 -99.5t100 -241.5q0 -141 -100 -241t-242 -100
h-967q-165 0 -281.5 116.5t-116.5 281.5t116.5 281.5t281.5 116.5q40 0 85 -10q-28 -84 -28 -160q0 -24 17 -40.5t40 -16.5t40 16.5t17 40.5q0 164 116.5 281t281.5 117q149 0 260.5 -98t132.5 -244h5zM853 455q114 -243 114 -318q0 -57 -33.5 -97t-80.5 -40t-80 40t-33 97
q0 33 28 112.5t56 142.5zM398 455q114 -243 114 -318q0 -57 -33.5 -97t-80.5 -40t-80.5 40t-33.5 97q0 33 28.5 112.5t57.5 142.5zM1308 455q114 -243 114 -318q0 -57 -33.5 -97t-80.5 -40t-80 40t-33 97q0 33 28.5 112.5t56.5 142.5z" />
<glyph unicode="&#xf226;" horiz-adv-x="2048" d="M2028 1494q15 -12 19 -30.5t-5 -35.5q-48 -88 -132 -147.5t-185 -78.5h-5t-5 -1q-105 126 -264 156q-32 96 -98.5 172.5t-155.5 121.5q4 42 11 71q47 174 205 265q105 61 234 61q23 0 38 -11.5t19 -30.5q4 -18 -5 -35t-27 -24q-91 -38 -137 -120.5t-28 -173.5
q18 -95 96 -156.5t180 -61.5q24 0 54 5q68 13 124 54q14 10 33.5 10t33.5 -10zM1365 569h-967q-165 0 -281.5 116.5t-116.5 281.5t116.5 281.5t281.5 116.5q40 0 85 -10q-28 -84 -28 -160q0 -24 17 -40.5t40 -16.5t40 16.5t17 40.5q0 165 116.5 281.5t281.5 116.5
q149 0 260.5 -98t132.5 -244q1 0 2.5 0.5t2.5 0.5q142 0 242 -100t100 -242q0 -141 -100 -241t-242 -100zM398 455q114 -243 114 -318q0 -57 -33.5 -97t-80.5 -40t-80.5 40t-33.5 97q0 33 28.5 112.5t57.5 142.5zM1308 455q114 -243 114 -318q0 -57 -33.5 -97t-80.5 -40
t-80 40t-33 97q0 33 28.5 112.5t56.5 142.5zM853 455q114 -243 114 -318q0 -57 -33.5 -97t-80.5 -40t-80 40t-33 97q0 33 28 112.5t56 142.5z" />
<glyph unicode="&#xf227;" horiz-adv-x="2048" d="M1650 796h-1195q-188 0 -321.5 133.5t-133.5 322.5q0 188 133.5 321.5t321.5 133.5q77 0 152 -27q-38 -100 -38 -201q0 -23 16.5 -40t40.5 -17q23 0 40 17t17 40q0 188 133 321.5t322 133.5q159 0 282 -98.5t159 -249.5q40 7 71 7q165 0 281.5 -116.5t116.5 -281.5
t-116.5 -282t-281.5 -117zM1138 341l-114 -227l-114 227l114 342zM683 341l-114 -227l-114 227l114 342zM1593 341l-114 -227l-114 227l114 342z" />
<glyph unicode="&#xf228;" horiz-adv-x="2048" d="M1650 910h-1195q-188 0 -321.5 133.5t-133.5 321.5q0 189 133.5 322t321.5 133q77 0 152 -27q-38 -98 -38 -200q0 -24 16.5 -40.5t40.5 -16.5q23 0 40 16.5t17 40.5q0 188 133 321.5t322 133.5q159 0 282 -98.5t159 -249.5q40 7 71 7q165 0 281.5 -117t116.5 -282
t-116.5 -281.5t-281.5 -116.5zM455 455l-114 -227l-113 227l113 341zM910 455l-114 -227l-113 227l113 341zM1820 455l-113 -227l-114 227l114 341zM1365 455l-113 -227l-114 227l114 341zM683 228l-114 -228l-114 228l114 341zM1593 228l-114 -228l-114 228l114 341z
M1138 228l-114 -228l-114 228l114 341z" />
<glyph unicode="&#xf229;" horiz-adv-x="2048" d="M1879 1436q-46 -27 -49 -66q0 -38 43 -69l145 -104q22 -15 12 -39q-7 -22 -35 -24l-180 12q-27 2 -55 -9q-45 75 -115 130q25 54 26 108q5 121 -77 210.5t-203 93.5q-90 4 -167 -44q-89 52 -186 66q0 20 -5 35l-54 164q-8 25 14 40q20 15 41 -1l139 -111
q41 -33 82.5 -22.5t58.5 59.5l57 162q8 22 34.5 21t32.5 -23l44 -167q13 -50 54 -64t84 16l147 99q22 15 42 -2q20 -18 10 -40l-67 -159q-19 -44 0 -78q22 -33 77 -36l185 -2q26 0 33 -26q7 -25 -16 -39zM1365 1251q142 0 242 -99.5t100 -241.5q0 -141 -100 -241t-242 -100
h-967q-165 0 -281.5 116.5t-116.5 281.5t116.5 281.5t281.5 116.5q40 0 85 -10q-28 -84 -28 -160q0 -24 17 -40.5t40 -16.5t40 16.5t17 40.5q0 164 116.5 281t281.5 117q149 0 260.5 -98t132.5 -244h5zM284 228l114 227l114 -227l-114 -228zM1308 455l114 -227l-114 -228
l-113 228zM740 228l113 227l114 -227l-114 -228z" />
<glyph unicode="&#xf22a;" horiz-adv-x="2048" d="M2028 1494q15 -12 19 -30.5t-5 -35.5q-48 -89 -132.5 -148.5t-184.5 -77.5h-5t-5 -1q-105 126 -264 156q-32 96 -98.5 172.5t-155.5 121.5q4 42 11 71q47 174 205 265q105 61 234 61q23 0 38 -11.5t19 -30.5q4 -18 -5 -35t-27 -24q-91 -38 -137 -120.5t-28 -173.5
q18 -95 96 -156.5t180 -61.5q24 0 54 5q68 13 124 54q14 10 33.5 10t33.5 -10zM1365 569h-967q-165 0 -281.5 116.5t-116.5 281.5t116.5 281.5t281.5 116.5q40 0 85 -10q-28 -84 -28 -160q0 -24 17 -40.5t40 -16.5t40 16.5t17 40.5q0 165 116.5 281.5t281.5 116.5
q149 0 260.5 -98t132.5 -244q1 0 2.5 0.5t2.5 0.5q142 0 242 -100t100 -242q0 -141 -100 -241t-242 -100zM740 228l113 227l114 -227l-114 -228zM284 228l114 227l114 -227l-114 -228zM1308 455l114 -227l-114 -228l-113 228z" />
<glyph unicode="&#xf22b;" horiz-adv-x="2048" d="M341 1707q26 -48 63.5 -122t101 -225.5t63.5 -210.5q0 -99 -67 -169t-161 -70t-160.5 70t-66.5 169q0 59 57 198.5t113 249.5zM1707 1707q25 -48 63 -122t101 -225.5t63 -210.5q0 -99 -66.5 -169t-160.5 -70t-161 70t-67 169q0 59 57 198.5t114 249.5zM1024 1479
q13 -25 35 -67t78 -157t99 -212.5t78 -202t35 -157.5q0 -142 -95 -242t-230 -100t-230 100t-95 242q0 84 81.5 283t162.5 356z" />
<glyph unicode="&#xf231;" horiz-adv-x="2048" d="M1650 796h-1195q-188 0 -321.5 133.5t-133.5 322.5q0 188 133.5 321.5t321.5 133.5q77 0 152 -27q-38 -100 -38 -201q0 -23 16.5 -40t40.5 -17q23 0 40 17t17 40q0 189 133 322t322 133q159 0 282 -98.5t159 -249.5q40 7 71 7q165 0 281.5 -116.5t116.5 -281.5
t-116.5 -282t-281.5 -117zM653 371q12 0 21 -8.5t9 -21.5q0 -12 -9 -20.5t-21 -8.5h-126l89 -89q9 -9 9 -21.5t-9 -21.5q-8 -8 -21 -8t-21 8l-89 90v-127q0 -12 -8.5 -20.5t-21.5 -8.5q-12 0 -21 8.5t-9 20.5v126l-89 -89q-8 -8 -21 -8t-21 8q-8 10 -8 22q0 11 8 21l89 89
h-126q-12 0 -20.5 8.5t-8.5 20.5q0 13 8.5 21.5t20.5 8.5h126l-89 89q-8 10 -8 21q0 13 8 21t21 8t21 -8l89 -89v126q0 13 9 21.5t21 8.5q13 0 21.5 -8.5t8.5 -21.5v-126l89 89q8 8 21 8t21 -8q9 -8 9 -21q0 -12 -9 -21l-89 -89h126zM1222 371q12 0 21 -8.5t9 -21.5
q0 -12 -9 -20.5t-21 -8.5h-126l89 -89q9 -9 9 -21.5t-9 -21.5q-7 -8 -21 -8t-21 8l-89 90v-127q0 -12 -9 -20.5t-21 -8.5t-21 8.5t-9 20.5v126l-89 -89q-7 -8 -20.5 -8t-21.5 8q-8 10 -8 22q0 11 8 21l89 89h-126q-12 0 -21 8.5t-9 20.5q0 13 9 21.5t21 8.5h126l-89 89
q-8 10 -8 21q0 13 8 21t21.5 8t20.5 -8l89 -89v126q0 13 9 21.5t21 8.5q13 0 21.5 -8.5t8.5 -21.5v-126l89 89q8 8 21 8t21 -8q9 -8 9 -21q0 -12 -9 -21l-89 -89h126zM1791 371q12 0 20.5 -8.5t8.5 -21.5q0 -12 -8.5 -20.5t-20.5 -8.5h-126l89 -89q9 -9 9 -21.5t-9 -21.5
q-8 -8 -21 -8t-21 8l-89 90v-127q0 -12 -9 -20.5t-21 -8.5q-13 0 -21.5 8.5t-8.5 20.5v126l-89 -89q-8 -8 -21 -8t-21 8q-9 11 -9 22q0 12 9 21l89 89h-126q-12 0 -21 8.5t-9 20.5q0 13 9 21.5t21 8.5h126l-89 89q-9 9 -9 21q0 13 9 21q8 8 21 8t21 -8l89 -89v126
q0 13 9 21.5t21 8.5t21 -8.5t9 -21.5v-126l89 89q8 8 21 8t21 -8q9 -8 9 -21q0 -12 -9 -21l-89 -89h126z" />
<glyph unicode="&#xf232;" horiz-adv-x="2048" d="M1650 910h-1195q-188 0 -321.5 133.5t-133.5 321.5q0 189 133.5 322t321.5 133q77 0 152 -27q-38 -98 -38 -200q0 -24 16.5 -40.5t40.5 -16.5q23 0 40 16.5t17 40.5q0 188 133 321.5t322 133.5q159 0 282 -98.5t159 -249.5q40 7 71 7q165 0 281.5 -117t116.5 -282
q0 -164 -116.5 -281t-281.5 -117zM653 599q12 0 21 -9t9 -21t-9 -21t-21 -9h-126l89 -89q9 -8 9 -20.5t-9 -21.5q-8 -8 -21 -8t-21 8l-89 89v-126q0 -12 -8.5 -21t-21.5 -9q-12 0 -21 9t-9 21v126l-89 -89q-8 -8 -21 -8t-21 8q-8 10 -8 21q0 13 8 21l89 89h-126
q-12 0 -20.5 9t-8.5 21t8.5 21t20.5 9h126l-89 89q-8 8 -8 21q0 11 8 21q8 8 21 8t21 -8l89 -89v126q0 12 9 21t21 9q13 0 21.5 -9t8.5 -21v-126l89 89q8 8 21 8t21 -8q9 -9 9 -21t-9 -21l-89 -89h126zM1791 599q12 0 20.5 -9t8.5 -21t-8.5 -21t-20.5 -9h-126l89 -89
q9 -8 9 -20.5t-9 -21.5q-8 -8 -21 -8t-21 8l-89 89v-126q0 -12 -9 -21t-21 -9q-13 0 -21.5 9t-8.5 21v126l-89 -89q-8 -8 -21 -8t-21 8q-9 11 -9 21q0 13 9 21l89 89h-126q-12 0 -21 9t-9 21t9 21t21 9h126l-89 89q-9 8 -9 21q0 12 9 21q8 8 21 8t21 -8l89 -89v126
q0 12 9 21t21 9t21 -9t9 -21v-126l89 89q8 8 21 8t21 -8q9 -9 9 -21t-9 -21l-89 -89h126zM1222 599q12 0 21 -9t9 -21t-9 -21t-21 -9h-126l89 -89q9 -8 9 -20.5t-9 -21.5q-7 -8 -21 -8t-21 8l-89 89v-126q0 -12 -9 -21t-21 -9t-21 9t-9 21v126l-89 -89q-7 -8 -20.5 -8
t-21.5 8q-8 10 -8 21q0 13 8 21l89 89h-126q-12 0 -21 9t-9 21t9 21t21 9h126l-89 89q-8 8 -8 21q0 11 8 21q8 8 21.5 8t20.5 -8l89 -89v126q0 12 9 21t21 9q13 0 21.5 -9t8.5 -21v-126l89 89q8 8 21 8t21 -8q9 -9 9 -21t-9 -21l-89 -89h126zM888 193q9 0 15.5 -6.5
t6.5 -15.5q0 -10 -6.5 -16.5t-15.5 -6.5h-94l66 -66q16 -16 0 -32q-5 -6 -15 -6t-16 6l-67 67v-95q0 -9 -6.5 -15.5t-15.5 -6.5q-10 0 -16.5 6.5t-6.5 15.5v95l-66 -67q-6 -6 -16 -6t-16 6q-7 7 -7 16q0 7 7 16l67 66h-95q-9 0 -15.5 6.5t-6.5 16.5q0 9 6.5 15.5t15.5 6.5
h95l-67 67q-7 7 -7 16q0 8 7 15q6 6 16 6t16 -6l66 -66v94q0 9 6.5 15.5t16.5 6.5q9 0 15.5 -6.5t6.5 -15.5v-94l67 66q6 6 16 6t15 -6q7 -6 7 -15q0 -10 -7 -16l-67 -67h95zM1460 193q9 0 15.5 -6.5t6.5 -15.5q0 -10 -6.5 -16.5t-15.5 -6.5h-94l66 -66q16 -16 0 -32
q-5 -6 -15 -6t-16 6l-67 67v-95q0 -9 -6.5 -15.5t-15.5 -6.5q-10 0 -16.5 6.5t-6.5 15.5v95l-66 -67q-6 -6 -16 -6t-16 6q-7 7 -7 16q0 7 7 16l67 66h-95q-9 0 -15.5 6.5t-6.5 16.5q0 9 6.5 15.5t15.5 6.5h95l-67 67q-7 7 -7 16q0 8 7 15q6 6 16 6t16 -6l66 -66v94
q0 9 6.5 15.5t16.5 6.5q9 0 15.5 -6.5t6.5 -15.5v-94l67 66q6 6 16 6t15 -6q7 -6 7 -15q0 -10 -7 -16l-67 -67h95z" />
<glyph unicode="&#xf233;" horiz-adv-x="2048" d="M1879 1436q-46 -27 -49 -66q0 -38 43 -69l145 -104q22 -15 12 -39q-7 -22 -35 -24l-180 12q-27 2 -55 -9q-45 75 -115 130q25 54 26 108q5 121 -77 210.5t-203 93.5q-90 4 -167 -44q-89 52 -186 66q0 20 -5 35l-54 164q-8 25 14 40q20 15 41 -1l139 -111
q41 -33 82.5 -22.5t58.5 59.5l57 162q8 22 34.5 21t32.5 -23l44 -167q13 -50 54 -64t84 16l147 99q22 15 42 -2q20 -18 10 -40l-67 -159q-19 -44 0 -78q22 -33 77 -36l185 -2q26 0 33 -26q7 -25 -16 -39zM1365 1251q142 0 242 -99.5t100 -241.5q0 -141 -100 -241t-242 -100
h-967q-165 0 -281.5 116.5t-116.5 281.5t116.5 281.5t281.5 116.5q40 0 85 -10q-28 -84 -28 -160q0 -24 17 -40.5t40 -16.5t40 16.5t17 40.5q0 164 116.5 281t281.5 117q149 0 260.5 -98t132.5 -244h5zM482 257q13 0 21.5 -8.5t8.5 -20.5q0 -13 -8.5 -21.5t-21.5 -8.5h-125
l89 -89q8 -9 8 -21.5t-8 -20.5t-21.5 -8t-21.5 8l-89 89v-126q0 -13 -8.5 -21.5t-21.5 -8.5q-12 0 -20.5 8.5t-8.5 21.5v126l-89 -89q-8 -8 -21 -8t-21 8q-9 7 -9 21q0 12 9 21l89 89h-126q-13 0 -21.5 8.5t-8.5 21.5q0 12 8.5 20.5t21.5 8.5h126l-89 89q-9 9 -9 21
q0 13 9 22q8 7 21 7t21 -7l89 -90v126q0 13 8.5 21.5t21.5 8.5q12 0 20.5 -8.5t8.5 -21.5v-125l89 89q8 7 21.5 7t20.5 -7q9 -9 9 -22q0 -11 -8 -21l-90 -89h126zM1051 257q13 0 21.5 -8.5t8.5 -20.5q0 -13 -8.5 -21.5t-21.5 -8.5h-126l89 -89q9 -9 9 -21.5t-8 -20.5
t-21.5 -8t-21.5 8l-89 89v-126q0 -13 -8.5 -21.5t-21.5 -8.5q-12 0 -20.5 8.5t-8.5 21.5v126l-89 -89q-8 -8 -21.5 -8t-20.5 8q-9 8 -9 21q0 12 9 21l89 89h-127q-12 0 -20.5 8.5t-8.5 21.5q0 12 8.5 20.5t20.5 8.5h127l-89 89q-9 9 -9 21q0 13 9 22q7 7 20.5 7t21.5 -7
l89 -90v126q0 13 8.5 21.5t20.5 8.5q13 0 21.5 -8.5t8.5 -21.5v-125l89 89q8 7 21 7t21 -7q9 -9 9 -22q0 -12 -9 -21l-89 -89h126zM1620 257q12 0 21 -8.5t9 -20.5q0 -13 -9 -21.5t-21 -8.5h-126l89 -89q9 -9 9 -21.5t-9 -20.5q-8 -8 -21 -8t-21 8l-89 89v-126
q0 -13 -8.5 -21.5t-21.5 -8.5q-12 0 -20.5 8.5t-8.5 21.5v126l-89 -89q-8 -8 -21 -8t-21 8q-9 8 -9 21q0 12 9 21l88 89h-126q-12 0 -20.5 8.5t-8.5 21.5q0 12 8.5 20.5t20.5 8.5h126l-88 89q-9 9 -9 21q0 13 9 22q8 7 21 7t21 -7l89 -90v126q0 13 8.5 21.5t20.5 8.5
q13 0 21.5 -8.5t8.5 -21.5v-125l89 89q8 7 21.5 7t20.5 -7q9 -9 9 -22q0 -12 -9 -21l-89 -89h126z" />
<glyph unicode="&#xf234;" horiz-adv-x="2048" d="M2028 1494q15 -12 19 -30.5t-5 -35.5q-48 -89 -132.5 -148.5t-184.5 -77.5h-5t-5 -1q-105 126 -264 156q-32 96 -98.5 172.5t-155.5 121.5q4 42 11 71q47 174 205 265q105 61 234 61q23 0 38 -11.5t19 -30.5q4 -18 -5 -35t-27 -24q-91 -38 -137 -120.5t-28 -173.5
q18 -95 96 -156.5t180 -61.5q99 0 178 59q14 10 33.5 10t33.5 -10zM1365 569h-967q-165 0 -281.5 116.5t-116.5 281.5t116.5 281.5t281.5 116.5q40 0 85 -10q-28 -84 -28 -160q0 -24 17 -40.5t40 -16.5t40 16.5t17 40.5q0 165 116.5 281.5t281.5 116.5q149 0 260.5 -98
t132.5 -244q1 0 2.5 0.5t2.5 0.5q142 0 242 -100t100 -242q0 -141 -100 -241t-242 -100zM1051 257q13 0 21.5 -8.5t8.5 -20.5q0 -13 -8.5 -21.5t-21.5 -8.5h-126l89 -89q9 -9 9 -21.5t-8 -20.5t-21.5 -8t-21.5 8l-89 89v-126q0 -13 -8.5 -21.5t-21.5 -8.5q-12 0 -20.5 8.5
t-8.5 21.5v126l-89 -89q-8 -8 -21.5 -8t-20.5 8q-9 8 -9 21q0 12 9 21l89 89h-127q-12 0 -20.5 8.5t-8.5 21.5q0 12 8.5 20.5t20.5 8.5h127l-89 89q-9 9 -9 21q0 13 9 22q7 7 20.5 7t21.5 -7l89 -90v126q0 13 8.5 21.5t20.5 8.5q13 0 21.5 -8.5t8.5 -21.5v-125l89 89
q8 7 21 7t21 -7q9 -9 9 -22q0 -12 -9 -21l-89 -89h126zM482 257q13 0 21.5 -8.5t8.5 -20.5q0 -13 -8.5 -21.5t-21.5 -8.5h-125l89 -89q8 -9 8 -21.5t-8 -20.5t-21.5 -8t-21.5 8l-89 89v-126q0 -13 -8.5 -21.5t-21.5 -8.5q-12 0 -20.5 8.5t-8.5 21.5v126l-89 -89
q-8 -8 -21 -8t-21 8q-9 7 -9 21q0 12 9 21l89 89h-126q-13 0 -21.5 8.5t-8.5 21.5q0 12 8.5 20.5t21.5 8.5h126l-89 89q-9 9 -9 21q0 13 9 22q8 7 21 7t21 -7l89 -90v126q0 13 8.5 21.5t21.5 8.5q12 0 20.5 -8.5t8.5 -21.5v-125l89 89q8 7 21.5 7t20.5 -7q9 -9 9 -22
q0 -11 -8 -21l-90 -89h126zM1620 257q12 0 21 -8.5t9 -20.5q0 -13 -9 -21.5t-21 -8.5h-126l89 -89q9 -9 9 -21.5t-9 -20.5q-8 -8 -21 -8t-21 8l-89 89v-126q0 -13 -8.5 -21.5t-21.5 -8.5q-12 0 -20.5 8.5t-8.5 21.5v126l-89 -89q-8 -8 -21 -8t-21 8q-9 8 -9 21q0 12 9 21
l88 89h-126q-12 0 -20.5 8.5t-8.5 21.5q0 12 8.5 20.5t20.5 8.5h126l-88 89q-9 9 -9 21q0 13 9 22q8 7 21 7t21 -7l89 -90v126q0 13 8.5 21.5t20.5 8.5q13 0 21.5 -8.5t8.5 -21.5v-125l89 89q8 7 21.5 7t20.5 -7q9 -9 9 -22q0 -12 -9 -21l-89 -89h126z" />
<glyph unicode="&#xf235;" horiz-adv-x="2048" d="M1650 796h-1195q-188 0 -321.5 133.5t-133.5 322.5q0 188 133.5 321.5t321.5 133.5q77 0 152 -27q-38 -100 -38 -201q0 -23 16.5 -40t40.5 -17q23 0 40 17t17 40q0 188 133 321.5t322 133.5q159 0 282 -98.5t159 -249.5q40 7 71 7q165 0 281.5 -116.5t116.5 -281.5
t-116.5 -282t-281.5 -117zM796 569q13 -27 32 -69.5t50.5 -129t31.5 -120.5q0 -56 -33.5 -96t-80.5 -40t-80 40t-33 96q0 34 28.5 113.5t56.5 142.5zM1707 569q13 -27 31.5 -69.5t50 -129t31.5 -120.5q0 -56 -33 -96t-80 -40t-80.5 40t-33.5 96q0 34 28.5 113.5t56.5 142.5z
M539 371q13 0 21.5 -8.5t8.5 -21.5q0 -12 -8.5 -20.5t-21.5 -8.5h-126l89 -89q9 -9 9 -21.5t-8 -21.5q-8 -8 -21.5 -8t-21.5 8l-89 90v-126q0 -13 -8.5 -21.5t-21.5 -8.5q-12 0 -20.5 8.5t-8.5 21.5v126l-89 -90q-8 -8 -21.5 -8t-20.5 8q-9 9 -9 22q0 12 9 21l89 89h-127
q-12 0 -20.5 8.5t-8.5 20.5q0 13 8.5 21.5t20.5 8.5h127l-89 89q-9 9 -9 21q0 13 9 21q7 8 20.5 8t21.5 -8l89 -89v126q0 13 8.5 21.5t20.5 8.5q13 0 21.5 -8.5t8.5 -21.5v-126l89 89q8 8 21 8t21 -8q9 -8 9 -21q0 -12 -9 -21l-89 -89h126zM1449 371q13 0 21.5 -8.5
t8.5 -21.5q0 -12 -8.5 -20.5t-21.5 -8.5h-125l89 -89q8 -9 8 -21.5t-8 -21.5q-8 -8 -21.5 -8t-20.5 8l-90 90v-126q0 -13 -8.5 -21.5t-20.5 -8.5q-13 0 -21.5 8.5t-8.5 21.5v126l-89 -90q-7 -8 -21 -8t-21 8q-9 9 -9 22q0 12 9 21l89 89h-126q-13 0 -21.5 8.5t-8.5 20.5
q0 13 8.5 21.5t21.5 8.5h126l-89 89q-9 9 -9 21q0 13 9 21q7 8 20.5 8t21.5 -8l89 -89v126q0 13 8.5 21.5t21.5 8.5q12 0 20.5 -8.5t8.5 -21.5v-126l90 89q8 8 21 8t21 -8t8 -21q0 -11 -8 -21l-90 -89h126z" />
<glyph unicode="&#xf236;" horiz-adv-x="2048" d="M1650 910h-1195q-188 0 -321.5 133.5t-133.5 321.5q0 189 133.5 322t321.5 133q77 0 152 -27q-38 -98 -38 -200q0 -24 16.5 -40.5t40.5 -16.5q23 0 40 16.5t17 40.5q0 188 133 321.5t322 133.5q159 0 282 -98.5t159 -249.5q40 7 71 7q165 0 281.5 -117t116.5 -282
t-116.5 -281.5t-281.5 -116.5zM539 599q13 0 21.5 -9t8.5 -21t-8.5 -21t-21.5 -9h-126l89 -89q9 -8 9 -20.5t-8 -21.5q-8 -8 -21.5 -8t-21.5 8l-89 89v-126q0 -12 -8.5 -21t-21.5 -9q-12 0 -20.5 9t-8.5 21v126l-89 -89q-8 -8 -21.5 -8t-20.5 8q-9 9 -9 21q0 13 9 21l89 89
h-127q-12 0 -20.5 9t-8.5 21t8.5 21t20.5 9h127l-89 89q-9 8 -9 21q0 12 9 21q7 8 20.5 8t21.5 -8l89 -89v126q0 12 8.5 21t20.5 9q13 0 21.5 -9t8.5 -21v-126l89 89q8 8 21 8t21 -8q9 -9 9 -21t-9 -21l-89 -89h126zM1222 599q12 0 21 -9t9 -21t-9 -21t-21 -9h-126l89 -89
q9 -8 9 -20.5t-9 -21.5q-7 -8 -21 -8t-21 8l-89 89v-126q0 -12 -9 -21t-21 -9t-21 9t-9 21v126l-89 -89q-7 -8 -20.5 -8t-21.5 8q-8 10 -8 21q0 13 8 21l89 89h-126q-12 0 -21 9t-9 21t9 21t21 9h126l-89 89q-8 8 -8 21q0 11 8 21q8 8 21.5 8t20.5 -8l89 -89v126q0 12 9 21
t21 9q13 0 21.5 -9t8.5 -21v-126l89 89q8 8 21 8t21 -8q9 -9 9 -21t-9 -21l-89 -89h126zM1904 599q13 0 21.5 -9t8.5 -21t-8.5 -21t-21.5 -9h-125l89 -89q8 -8 8 -20.5t-8 -21.5q-8 -8 -21 -8t-21 8l-90 89v-126q0 -12 -8.5 -21t-20.5 -9q-13 0 -21.5 9t-8.5 21v126l-89 -89
q-8 -8 -21 -8t-21 8q-9 9 -9 21q0 13 9 21l89 89h-126q-13 0 -21.5 9t-8.5 21t8.5 21t21.5 9h126l-89 89q-9 8 -9 21q0 12 9 21q8 8 21 8t21 -8l89 -89v126q0 12 8.5 21t21.5 9q12 0 21 -9t9 -21v-126l89 89q8 8 21 8t21 -8q8 -10 8 -21t-8 -21l-90 -89h126zM683 455
q113 -243 113 -318q0 -57 -33 -97t-80 -40t-80.5 40t-33.5 97q0 33 28.5 112.5t56.5 142.5zM1365 455q114 -243 114 -318q0 -57 -33.5 -97t-80.5 -40t-80 40t-33 97q0 33 28 112.5t56 142.5z" />
<glyph unicode="&#xf237;" horiz-adv-x="2048" d="M1879 1436q-46 -27 -49 -66q0 -38 43 -69l145 -104q22 -15 12 -39q-7 -22 -35 -24l-180 12q-27 2 -55 -9q-45 75 -115 130q25 54 26 108q5 121 -77 210.5t-203 93.5q-90 4 -167 -44q-89 52 -186 66q0 20 -5 35l-54 164q-8 25 14 40q20 15 41 -1l139 -111
q41 -33 82.5 -22.5t58.5 59.5l57 162q8 22 34.5 21t32.5 -23l44 -167q13 -50 54 -64t84 16l147 99q22 15 42 -2q20 -18 10 -40l-67 -159q-19 -44 0 -78q22 -33 77 -36l185 -2q26 0 33 -26q7 -25 -16 -39zM1365 1251q142 0 242 -99.5t100 -241.5q0 -141 -100 -241t-242 -100
h-967q-165 0 -281.5 116.5t-116.5 281.5t116.5 281.5t281.5 116.5q40 0 85 -10q-28 -84 -28 -160q0 -24 17 -40.5t40 -16.5t40 16.5t17 40.5q0 164 116.5 281t281.5 117q149 0 260.5 -98t132.5 -244h5zM1593 455q114 -243 114 -318q0 -57 -33.5 -97t-80.5 -40t-80.5 40
t-33.5 97q0 33 28.5 112.5t56.5 142.5zM683 455q113 -243 113 -318q0 -57 -33 -97t-80 -40t-80.5 40t-33.5 97q0 33 28.5 112.5t56.5 142.5zM1336 257q12 0 20.5 -8.5t8.5 -20.5q0 -13 -8.5 -21.5t-20.5 -8.5h-126l89 -89q8 -9 8 -21.5t-8 -20.5t-21.5 -8t-20.5 8l-89 89
v-126q0 -13 -9 -21.5t-21 -8.5q-13 0 -21.5 8.5t-8.5 21.5v126l-89 -89q-7 -8 -20.5 -8t-21.5 8q-9 8 -9 21q0 12 9 21l89 89h-126q-12 0 -21 8.5t-9 21.5q0 12 9 20.5t21 8.5h126l-89 89q-9 9 -9 21q0 13 9 21q8 8 21.5 8t20.5 -8l89 -89v126q0 13 8.5 21.5t21.5 8.5
q12 0 21 -8.5t9 -21.5v-126l89 89q7 8 20.5 8.5t21.5 -7.5q9 -11 9 -22q0 -10 -9 -21l-89 -89h126zM425 257q13 0 21.5 -8.5t8.5 -20.5q0 -13 -8.5 -21.5t-21.5 -8.5h-125l89 -89q8 -9 8 -21.5t-8 -20.5t-21.5 -8t-20.5 8l-90 89v-126q0 -13 -8.5 -21.5t-20.5 -8.5
q-13 0 -21.5 8.5t-8.5 21.5v126l-89 -89q-7 -8 -20.5 -8t-21.5 8q-9 7 -9 21q0 12 9 21l89 89h-126q-13 0 -21.5 8.5t-8.5 21.5q0 12 8.5 20.5t21.5 8.5h126l-89 89q-9 9 -9 21q0 13 9 21q8 8 21 8t21 -8l89 -89v126q0 13 8.5 21.5t21.5 8.5q12 0 20.5 -8.5t8.5 -21.5v-126
l90 89q7 8 20.5 8.5t21.5 -7.5q8 -10 8 -22q0 -11 -8 -21l-90 -89h126z" />
<glyph unicode="&#xf238;" horiz-adv-x="2048" d="M2028 1494q15 -12 19 -30.5t-5 -35.5q-48 -89 -132.5 -148.5t-184.5 -77.5h-5t-5 -1q-105 126 -264 156q-32 96 -98.5 172.5t-155.5 121.5q4 42 11 71q47 174 205 265q105 61 234 61q23 0 38 -11.5t19 -30.5q4 -18 -5 -35t-27 -24q-91 -38 -137 -120.5t-28 -173.5
q18 -95 96 -156.5t180 -61.5q99 0 178 59q14 10 33.5 10t33.5 -10zM1365 569h-967q-165 0 -281.5 116.5t-116.5 281.5t116.5 281.5t281.5 116.5q40 0 85 -10q-28 -84 -28 -160q0 -24 17 -40.5t40 -16.5t40 16.5t17 40.5q0 165 116.5 281.5t281.5 116.5q149 0 260.5 -98
t132.5 -244q1 0 2.5 0.5t2.5 0.5q142 0 242 -100t100 -242q0 -141 -100 -241t-242 -100zM1593 455q114 -243 114 -318q0 -57 -33.5 -97t-80.5 -40t-80.5 40t-33.5 97q0 33 28.5 112.5t56.5 142.5zM683 455q113 -243 113 -318q0 -57 -33 -97t-80 -40t-80.5 40t-33.5 97
q0 33 28.5 112.5t56.5 142.5zM1336 257q12 0 20.5 -8.5t8.5 -20.5q0 -13 -8.5 -21.5t-20.5 -8.5h-126l89 -89q8 -9 8 -21.5t-8 -20.5t-21.5 -8t-20.5 8l-89 89v-126q0 -13 -9 -21.5t-21 -8.5q-13 0 -21.5 8.5t-8.5 21.5v126l-89 -89q-7 -8 -20.5 -8t-21.5 8q-9 8 -9 21
q0 12 9 21l89 89h-126q-12 0 -21 8.5t-9 21.5q0 12 9 20.5t21 8.5h126l-89 89q-9 9 -9 21q0 13 9 21q8 8 21.5 8t20.5 -8l89 -89v126q0 13 8.5 21.5t21.5 8.5q12 0 21 -8.5t9 -21.5v-126l89 89q7 8 20.5 8.5t21.5 -7.5q9 -11 9 -22q0 -10 -9 -21l-89 -89h126zM425 257
q13 0 21.5 -8.5t8.5 -20.5q0 -13 -8.5 -21.5t-21.5 -8.5h-125l89 -89q8 -9 8 -21.5t-8 -20.5t-21.5 -8t-20.5 8l-90 89v-126q0 -13 -8.5 -21.5t-20.5 -8.5q-13 0 -21.5 8.5t-8.5 21.5v126l-89 -89q-7 -8 -20.5 -8t-21.5 8q-9 7 -9 21q0 12 9 21l89 89h-126q-13 0 -21.5 8.5
t-8.5 21.5q0 12 8.5 20.5t21.5 8.5h126l-89 89q-9 9 -9 21q0 13 9 21q8 8 21 8t21 -8l89 -89v126q0 13 8.5 21.5t21.5 8.5q12 0 20.5 -8.5t8.5 -21.5v-126l90 89q7 8 20.5 8.5t21.5 -7.5q8 -10 8 -22q0 -11 -8 -21l-90 -89h126z" />
<glyph unicode="&#xf239;" horiz-adv-x="2048" d="M1024 1934l506 -1158l-506 -662l-506 662z" />
<glyph unicode="&#xf23a;" horiz-adv-x="2048" d="M1701 1707l223 -519l-223 -297l-222 297zM336 1707l223 -519l-223 -297l-222 297zM1024 1593l341 -797l-341 -455l-341 455z" />
<glyph unicode="&#xf23b;" horiz-adv-x="2048" d="M1650 796h-1195q-188 0 -321.5 133.5t-133.5 322.5q0 188 133.5 321.5t321.5 133.5q77 0 152 -27q-38 -100 -38 -201q0 -23 16.5 -40t40.5 -17q23 0 40 17t17 40q0 188 133 321.5t322 133.5q159 0 282 -98.5t159 -249.5q40 7 71 7q165 0 281.5 -116.5t116.5 -281.5
t-116.5 -282t-281.5 -117zM1707 569l113 -228l-113 -227l-114 227zM796 569l114 -228l-114 -227l-113 227zM1449 371q13 0 21.5 -8.5t8.5 -21.5q0 -12 -8.5 -20.5t-21.5 -8.5h-125l89 -89q8 -9 8 -21.5t-8 -21.5q-8 -8 -21.5 -8t-20.5 8l-90 90v-126q0 -13 -8.5 -21.5
t-20.5 -8.5q-13 0 -21.5 8.5t-8.5 21.5v126l-89 -90q-7 -8 -21 -8t-21 8q-9 9 -9 22q0 12 9 21l89 89h-126q-13 0 -21.5 8.5t-8.5 20.5q0 13 8.5 21.5t21.5 8.5h126l-89 89q-9 9 -9 21q0 13 9 21q7 8 20.5 8t21.5 -8l89 -89v126q0 13 8.5 21.5t21.5 8.5q12 0 20.5 -8.5
t8.5 -21.5v-126l90 89q8 8 21 8t21 -8t8 -21q0 -11 -8 -21l-90 -89h126zM539 371q13 0 21.5 -8.5t8.5 -21.5q0 -12 -8.5 -20.5t-21.5 -8.5h-126l89 -89q9 -9 9 -21.5t-8 -21.5q-8 -8 -21.5 -8t-21.5 8l-89 90v-126q0 -13 -8.5 -21.5t-21.5 -8.5q-12 0 -20.5 8.5t-8.5 21.5
v126l-89 -90q-8 -8 -21.5 -8t-20.5 8q-9 9 -9 22q0 12 9 21l89 89h-127q-12 0 -20.5 8.5t-8.5 20.5q0 13 8.5 21.5t20.5 8.5h127l-89 89q-9 9 -9 21q0 13 9 21q7 8 20.5 8t21.5 -8l89 -89v126q0 13 8.5 21.5t20.5 8.5q13 0 21.5 -8.5t8.5 -21.5v-126l89 89q8 8 21 8t21 -8
q9 -8 9 -21q0 -12 -9 -21l-89 -89h126z" />
<glyph unicode="&#xf23c;" horiz-adv-x="2048" d="M1650 910h-1195q-188 0 -321.5 133.5t-133.5 321.5q0 189 133.5 322t321.5 133q77 0 152 -27q-38 -98 -38 -200q0 -24 16.5 -40.5t40.5 -16.5q23 0 40 16.5t17 40.5q0 188 133 321.5t322 133.5q159 0 282 -98.5t159 -249.5q40 7 71 7q165 0 281.5 -117t116.5 -282
t-116.5 -281.5t-281.5 -116.5zM1479 228l-114 -228l-113 228l113 341zM796 228l-113 -228l-114 228l114 341zM539 599q13 0 21.5 -9t8.5 -21t-8.5 -21t-21.5 -9h-126l89 -89q9 -8 9 -20.5t-8 -21.5q-8 -8 -21.5 -8t-21.5 8l-89 89v-126q0 -12 -8.5 -21t-21.5 -9
q-12 0 -20.5 9t-8.5 21v126l-89 -89q-8 -8 -21.5 -8t-20.5 8q-9 9 -9 21q0 13 9 21l89 89h-127q-12 0 -20.5 9t-8.5 21t8.5 21t20.5 9h127l-89 89q-9 8 -9 21q0 12 9 21q7 8 20.5 8t21.5 -8l89 -89v126q0 12 8.5 21t20.5 9q13 0 21.5 -9t8.5 -21v-126l89 89q8 8 21 8t21 -8
q9 -9 9 -21t-9 -21l-89 -89h126zM1222 599q12 0 21 -9t9 -21t-9 -21t-21 -9h-126l89 -89q9 -8 9 -20.5t-9 -21.5q-7 -8 -21 -8t-21 8l-89 89v-126q0 -12 -9 -21t-21 -9t-21 9t-9 21v126l-89 -89q-7 -8 -20.5 -8t-21.5 8q-8 10 -8 21q0 13 8 21l89 89h-126q-12 0 -21 9t-9 21
t9 21t21 9h126l-89 89q-8 8 -8 21q0 11 8 21q8 8 21.5 8t20.5 -8l89 -89v126q0 12 9 21t21 9q13 0 21.5 -9t8.5 -21v-126l89 89q8 8 21 8t21 -8q9 -9 9 -21t-9 -21l-89 -89h126zM1904 599q13 0 21.5 -9t8.5 -21t-8.5 -21t-21.5 -9h-125l89 -89q8 -8 8 -20.5t-8 -21.5
q-8 -8 -21 -8t-21 8l-90 89v-126q0 -12 -8.5 -21t-20.5 -9q-13 0 -21.5 9t-8.5 21v126l-89 -89q-8 -8 -21 -8t-21 8q-9 9 -9 21q0 13 9 21l89 89h-126q-13 0 -21.5 9t-8.5 21t8.5 21t21.5 9h126l-89 89q-9 8 -9 21q0 12 9 21q8 8 21 8t21 -8l89 -89v126q0 12 8.5 21t21.5 9
q12 0 21 -9t9 -21v-126l89 89q8 8 21 8t21 -8q8 -10 8 -21t-8 -21l-90 -89h126z" />
<glyph unicode="&#xf23d;" horiz-adv-x="2048" d="M1879 1436q-46 -27 -49 -66q0 -38 43 -69l145 -103q22 -17 12 -40q-7 -22 -35 -24l-180 12q-30 3 -55 -9q-44 74 -115 130q25 54 26 108q5 121 -77 210.5t-203 93.5q-90 4 -167 -44q-89 52 -186 66q0 20 -5 36l-54 164q-8 23 14 39q20 15 41 -1l139 -111
q41 -33 82.5 -22.5t58.5 59.5l57 162q8 22 34.5 21t32.5 -23l44 -167q13 -49 54 -63t84 15l147 99q22 15 42 -2q20 -16 10 -40l-67 -159q-19 -44 0 -78q22 -33 77 -36l185 -2q26 0 33 -26q7 -25 -16 -39zM1365 1252q142 0 242 -100t100 -242q0 -141 -100 -241t-242 -100
h-967q-165 0 -281.5 116.5t-116.5 281.5t116.5 281.5t281.5 116.5q40 0 85 -10q-28 -84 -28 -160q0 -24 17 -40.5t40 -16.5t40 16.5t17 40.5q0 165 116.5 281.5t281.5 116.5q149 0 260.5 -98t132.5 -244q1 0 2.5 0.5t2.5 0.5zM683 455l113 -227l-113 -228l-114 228z
M1593 455l114 -227l-114 -228l-114 228zM1336 257q12 0 20.5 -8.5t8.5 -20.5q0 -13 -8.5 -21.5t-20.5 -8.5h-126l89 -89q8 -9 8 -21.5t-8 -20.5t-21 -8t-21 8l-89 89v-126q0 -13 -9 -21.5t-21 -8.5q-13 0 -21.5 8.5t-8.5 21.5v126l-89 -89q-7 -8 -20.5 -8t-21.5 8
q-9 8 -9 21q0 12 9 21l89 89h-126q-12 0 -21 8.5t-9 21.5q0 12 9 20.5t21 8.5h126l-89 89q-9 9 -9 21q0 13 9 22q8 7 21.5 7t20.5 -7l89 -90v126q0 13 8.5 21.5t21.5 8.5q12 0 21 -8.5t9 -21.5v-125l89 89q7 7 20.5 7t21.5 -7q9 -11 9 -22q0 -10 -9 -21l-89 -89h126z
M425 257q13 0 21.5 -8.5t8.5 -20.5q0 -13 -8.5 -21.5t-21.5 -8.5h-125l89 -89q8 -9 8 -21.5t-8 -20.5t-21 -8t-21 8l-90 89v-126q0 -13 -8.5 -21.5t-20.5 -8.5q-13 0 -21.5 8.5t-8.5 21.5v126l-89 -89q-7 -8 -20.5 -8t-21.5 8q-9 7 -9 21q0 12 9 21l89 89h-126
q-13 0 -21.5 8.5t-8.5 21.5q0 12 8.5 20.5t21.5 8.5h126l-89 89q-9 9 -9 21q0 13 9 22q7 7 20.5 7t21.5 -7l89 -90v126q0 13 8.5 21.5t21.5 8.5q12 0 20.5 -8.5t8.5 -21.5v-125l90 89q7 7 20.5 7t21.5 -7q8 -10 8 -22q0 -11 -8 -21l-90 -89h126z" />
<glyph unicode="&#xf23e;" horiz-adv-x="2048" d="M2028 1494q15 -12 19 -30.5t-5 -35.5q-48 -89 -132.5 -148.5t-184.5 -77.5h-5t-5 -1q-105 126 -264 156q-32 96 -98.5 172.5t-155.5 121.5q4 42 11 71q45 173 205 265q105 61 234 61q22 0 37.5 -12t19.5 -30t-5 -35t-27 -24q-91 -38 -137 -120.5t-28 -173.5
q18 -95 96 -156.5t180 -61.5q99 0 178 59q14 10 33.5 10t33.5 -10zM1365 569h-967q-165 0 -281.5 116.5t-116.5 281.5t116.5 281.5t281.5 116.5q40 0 85 -10q-28 -84 -28 -160q0 -24 17 -40.5t40 -16.5t40 16.5t17 40.5q0 165 116.5 281.5t281.5 116.5q149 0 260.5 -98
t132.5 -244l2 1h3q142 0 242 -100t100 -242q0 -141 -100 -241t-242 -100zM683 455l113 -227l-113 -228l-114 228zM1593 455l114 -227l-114 -228l-114 228zM1335 257q13 0 21.5 -8.5t8.5 -20.5q0 -13 -8.5 -21.5t-21.5 -8.5h-125l89 -89q8 -9 8 -21.5t-8 -20.5t-21.5 -8
t-20.5 8l-90 89v-126q0 -13 -8.5 -21.5t-20.5 -8.5q-13 0 -21.5 8.5t-8.5 21.5v126l-89 -89q-7 -8 -20.5 -8t-21.5 8q-9 8 -9 21q0 12 9 21l89 89h-126q-12 0 -21 8.5t-9 21.5q0 12 9 20.5t21 8.5h126l-89 89q-9 9 -9 21q0 13 9 21q8 8 21.5 8t20.5 -8l89 -89v126
q0 13 8.5 21.5t21.5 8.5q12 0 21 -8.5t9 -21.5v-126l89 89q7 8 20.5 8.5t21.5 -7.5q8 -10 8 -22q0 -11 -8 -21l-90 -89h126zM425 257q13 0 21.5 -8.5t8.5 -20.5q0 -13 -8.5 -21.5t-21.5 -8.5h-125l89 -89q8 -9 8 -21.5t-8 -20.5t-21.5 -8t-20.5 8l-90 89v-126
q0 -13 -8.5 -21.5t-20.5 -8.5q-13 0 -21.5 8.5t-8.5 21.5v126l-89 -89q-7 -8 -20.5 -8t-21.5 8q-9 7 -9 21q0 12 9 21l89 89h-126q-13 0 -21.5 8.5t-8.5 21.5q0 12 8.5 20.5t21.5 8.5h126l-89 89q-9 9 -9 21q0 13 9 21q8 8 21 8t21 -8l89 -89v126q0 13 8.5 21.5t21.5 8.5
q12 0 20.5 -8.5t8.5 -21.5v-126l90 89q7 8 20.5 8.5t21.5 -7.5q8 -10 8 -22q0 -11 -8 -21l-90 -89h126z" />
<glyph unicode="&#xf241;" horiz-adv-x="2048" d="M1894 1576q16 0 28 -12t12 -28t-12 -28t-28 -12h-148l105 -105q11 -11 11 -28t-11 -28q-12 -12 -28 -12q-17 0 -28 12l-105 105v-149q0 -17 -12 -28.5t-28 -11.5t-28 11.5t-12 28.5v149l-105 -105q-12 -12 -28 -12q-17 0 -28 12q-12 11 -12 28t12 28l105 105h-149
q-17 0 -28.5 12t-11.5 28t11.5 28t28.5 12h149l-105 105q-12 11 -12 27.5t12 28.5q11 12 27.5 12t28.5 -12l105 -105v149q0 16 11.5 27.5t28.5 11.5t28.5 -11.5t11.5 -27.5v-149l105 105q11 12 27.5 12t28.5 -12q11 -12 11 -28.5t-11 -27.5l-105 -105h148zM543 1335
l-105 105v-149q0 -17 -12 -28.5t-28 -11.5t-28 11.5t-12 28.5v149l-105 -105q-11 -12 -28 -12q-16 0 -28 12q-11 11 -11 28t11 28l105 105h-148q-16 0 -28 12t-12 28t12 28t28 12h148l-105 105q-11 11 -11 27.5t11 28.5q12 12 28.5 12t27.5 -12l105 -105v149q0 16 11.5 27.5
t28.5 11.5t28.5 -11.5t11.5 -27.5v-149l105 105q12 12 28.5 12t27.5 -12q12 -12 12 -28.5t-12 -27.5l-105 -105h149q17 0 28.5 -12t11.5 -28t-11.5 -28t-28.5 -12h-149l105 -105q12 -11 12 -28t-12 -28q-11 -12 -28 -12q-16 0 -28 12zM1522 858q26 0 45 -19t19 -45
t-19 -44.5t-45 -18.5h-349l247 -248q19 -18 19 -44.5t-19 -45.5q-20 -18 -45 -18q-27 0 -45 18l-247 248v-350q0 -26 -19 -44.5t-45 -18.5t-44.5 18.5t-18.5 44.5v350l-248 -248q-18 -18 -44 -18q-27 0 -45 18q-19 19 -19 45t19 45l247 248h-350q-26 0 -44.5 18.5
t-18.5 44.5t18.5 45t44.5 19h350l-247 247q-19 18 -19 44.5t19 45.5q19 18 45 18t44 -18l248 -248v350q0 26 18.5 45t44.5 19t45 -19t19 -45v-350l247 248q19 18 45 18t45 -18q18 -19 18 -45.5t-18 -44.5l-247 -247h349z" />
<glyph unicode="&#xf242;" horiz-adv-x="2048" d="M1522 1313q26 0 45 -19t19 -45t-19 -44.5t-45 -18.5h-349l247 -248q19 -18 19 -44.5t-19 -44.5q-19 -19 -45 -19q-27 0 -45 19l-247 247v-350q0 -26 -19 -44.5t-45 -18.5t-44.5 18.5t-18.5 44.5v350l-248 -248q-18 -18 -44 -18q-27 0 -45 18q-19 19 -19 45.5t19 44.5
l247 248h-350q-26 0 -44.5 18.5t-18.5 44.5t18.5 45t44.5 19h350l-247 247q-19 19 -19 45t19 45q19 18 45 18t44 -18l248 -247v349q0 26 18.5 45t44.5 19t45 -19t19 -45v-349l247 247q19 18 45 18t45 -18q18 -19 18 -45t-18 -45l-247 -247h349zM341 1024q9 -17 24.5 -46.5
t55 -110t69.5 -149t54.5 -141.5t24.5 -110q0 -100 -66.5 -169.5t-161.5 -69.5q-94 0 -160.5 69.5t-66.5 169.5q0 59 57 198t113 249zM1707 1024q25 -48 63 -122t101 -225t63 -210q0 -100 -66.5 -169.5t-160.5 -69.5q-95 0 -161.5 69.5t-66.5 169.5q0 59 57 198t114 249z" />
<glyph unicode="&#xf243;" horiz-adv-x="2048" d="M1522 1313q26 0 45 -19t19 -45t-19 -44.5t-45 -18.5h-349l247 -248q19 -18 19 -44.5t-19 -44.5q-19 -19 -45 -19q-27 0 -45 19l-247 247v-350q0 -26 -19 -44.5t-45 -18.5t-44.5 18.5t-18.5 44.5v350l-248 -248q-18 -18 -44 -18q-27 0 -45 18q-19 19 -19 45.5t19 44.5
l247 248h-350q-26 0 -44.5 18.5t-18.5 44.5t18.5 45t44.5 19h350l-247 247q-19 19 -19 45t19 45q19 18 45 18t44 -18l248 -247v349q0 26 18.5 45t44.5 19t45 -19t19 -45v-349l247 247q19 18 45 18t45 -18q18 -19 18 -45t-18 -45l-247 -247h349zM336 1024l223 -519l-223 -296
l-222 296zM1701 1024l223 -519l-223 -296l-222 296z" />
<glyph unicode="&#xf244;" horiz-adv-x="2048" d="M1650 796h-1195q-188 0 -321.5 133.5t-133.5 322.5q0 188 133.5 321.5t321.5 133.5q77 0 152 -27q-38 -100 -38 -201q0 -23 16.5 -40t40.5 -17q23 0 40 17t17 40q0 188 133 321.5t322 133.5q159 0 282 -98.5t159 -249.5q40 7 71 7q165 0 281.5 -116.5t116.5 -281.5
t-116.5 -282t-281.5 -117zM569 683q47 0 80.5 -33.5t33.5 -80.5t-33.5 -80.5t-80.5 -33.5t-80.5 33.5t-33.5 80.5t33.5 80.5t80.5 33.5zM1024 683q47 0 80.5 -33.5t33.5 -80.5t-33.5 -80.5t-80.5 -33.5t-80.5 33.5t-33.5 80.5t33.5 80.5t80.5 33.5zM1479 683
q47 0 80.5 -33.5t33.5 -80.5t-33.5 -80.5t-80.5 -33.5t-80.5 33.5t-33.5 80.5t33.5 80.5t80.5 33.5zM1252 341q46 0 79.5 -33.5t33.5 -79.5q0 -47 -33 -80.5t-80 -33.5t-80.5 33.5t-33.5 80.5t33.5 80t80.5 33zM796 341q47 0 80.5 -33t33.5 -80t-33.5 -80.5t-80.5 -33.5
t-80 33.5t-33 80.5q0 46 33.5 79.5t79.5 33.5z" />
<glyph unicode="&#xf245;" horiz-adv-x="2048" d="M1650 910h-1195q-188 0 -321.5 133.5t-133.5 321.5q0 189 133.5 322t321.5 133q77 0 152 -27q-38 -98 -38 -200q0 -24 16.5 -40.5t40.5 -16.5q23 0 40 16.5t17 40.5q0 188 133 321.5t322 133.5q159 0 282 -98.5t159 -249.5q40 7 71 7q165 0 281.5 -117t116.5 -282
t-116.5 -281.5t-281.5 -116.5zM1621 484q12 0 20.5 -8.5t8.5 -20.5t-8.5 -20t-20.5 -8q-63 0 -114.5 -17t-83 -42.5t-55 -60t-34.5 -64t-17.5 -62t-7.5 -45.5t-1 -22q0 -12 -8 -20.5t-20 -8.5t-20 8.5t-8 20.5v682h56v-479q97 167 313 167zM996 796h56v-455q0 -11 -8 -19.5
t-20 -8.5t-20 8.5t-8 19.5v455zM228 569q47 0 80 -33.5t33 -80.5t-33 -80.5t-80 -33.5t-80.5 33.5t-33.5 80.5t33.5 80.5t80.5 33.5zM1707 455q0 47 33 80.5t80 33.5t80.5 -33.5t33.5 -80.5t-33.5 -80.5t-80.5 -33.5t-80 33.5t-33 80.5zM768 85q-12 0 -20 8.5t-8 20.5
q0 8 -1 21.5t-7.5 45.5t-17.5 62t-34.5 64.5t-55.5 60t-83 42.5t-114 17q-12 0 -20.5 8t-8.5 20t8.5 20.5t20.5 8.5q216 0 313 -167v479h56v-683q0 -11 -8.5 -19.5t-19.5 -8.5zM1024 228q47 0 80.5 -33.5t33.5 -80.5t-33.5 -80.5t-80.5 -33.5t-80.5 33.5t-33.5 80.5
t33.5 80.5t80.5 33.5z" />
<glyph unicode="&#xf246;" horiz-adv-x="2048" d="M1879 1322q-46 -27 -49 -66q0 -38 43 -69l145 -103q22 -17 12 -40q-8 -23 -35 -23l-180 11q-30 3 -55 -9q-44 74 -115 130q25 56 26 108q5 121 -77 210.5t-203 94.5q-90 3 -167 -45q-92 53 -186 66q0 20 -5 36l-54 164q-9 25 14 39q21 16 41 -1l139 -110
q41 -34 82.5 -23.5t58.5 59.5l57 163q8 21 34.5 20t32.5 -23l44 -167q13 -49 54 -63t84 15l147 99q21 15 42 -1q20 -18 10 -41l-67 -159q-19 -45 0 -77q22 -34 77 -36l185 -3q26 0 33 -26q7 -25 -16 -39zM1365 1138q142 0 242 -100t100 -242q0 -141 -100 -241t-242 -100
h-967q-165 0 -281.5 116.5t-116.5 281.5t116.5 282t281.5 117q36 0 85 -11q-28 -84 -28 -160q0 -24 17 -40.5t40 -16.5t40 16.5t17 40.5q0 165 116.5 281.5t281.5 116.5q149 0 260.5 -98t132.5 -244q1 0 2.5 0.5t2.5 0.5zM853 341q47 0 80.5 -33t33.5 -80t-33.5 -80.5
t-80.5 -33.5t-80 33.5t-33 80.5t33 80t80 33zM1308 341q47 0 80.5 -33t33.5 -80t-33.5 -80.5t-80.5 -33.5t-80 33.5t-33 80.5q0 46 33.5 79.5t79.5 33.5zM398 341q47 0 80.5 -33t33.5 -80t-33.5 -80.5t-80.5 -33.5t-80.5 33.5t-33.5 80.5t33.5 80t80.5 33z" />
<glyph unicode="&#xf247;" horiz-adv-x="2048" d="M2028 1380q15 -12 19 -30t-5 -35q-59 -109 -167 -172q-67 -39 -150 -55q-7 0 -10 -1q-103 125 -264 157q-32 95 -98.5 171.5t-155.5 121.5q3 42 11 72q47 173 205 264q105 61 234 61q23 0 38 -11.5t19 -30.5q4 -18 -5 -34.5t-27 -23.5q-91 -38 -137 -120.5t-28 -173.5
q18 -95 96 -156.5t180 -61.5q31 0 54 5q68 12 124 54q14 11 33.5 10.5t33.5 -11.5zM1365 455h-967q-165 0 -281.5 117t-116.5 281q0 165 116.5 282t281.5 117q43 0 85 -11q-28 -84 -28 -160q0 -23 17 -40t40 -17t40 17t17 40q0 165 116.5 281.5t281.5 116.5q149 0 260.5 -98
t132.5 -244q1 0 2.5 0.5t2.5 0.5q142 0 242 -100t100 -241q0 -142 -100 -242t-242 -100zM853 341q47 0 80.5 -33t33.5 -80t-33.5 -80.5t-80.5 -33.5t-80 33.5t-33 80.5t33 80t80 33zM1308 341q47 0 80.5 -33t33.5 -80t-33.5 -80.5t-80.5 -33.5t-80 33.5t-33 80.5
q0 46 33.5 79.5t79.5 33.5zM398 341q47 0 80.5 -33t33.5 -80t-33.5 -80.5t-80.5 -33.5t-80.5 33.5t-33.5 80.5t33.5 80t80.5 33z" />
<glyph unicode="&#xf248;" horiz-adv-x="2048" d="M1536 1934q-23 0 -40 17t-17 40q0 24 17 40.5t40 16.5t40 -16.5t17 -40.5q0 -23 -17 -40t-40 -17zM512 1934q-23 0 -40 17t-17 40q0 24 17 40.5t40 16.5t40 -16.5t17 -40.5q0 -23 -17 -40t-40 -17zM1024 1820q-47 0 -80.5 33.5t-33.5 80.5t33.5 80.5t80.5 33.5
t80.5 -33.5t33.5 -80.5t-33.5 -80.5t-80.5 -33.5zM1991 1707q-23 0 -40 16.5t-17 40.5q0 23 17 39.5t40 16.5q24 0 40.5 -16.5t16.5 -39.5q0 -24 -16.5 -40.5t-40.5 -16.5zM57 1707q-24 0 -40.5 16.5t-16.5 40.5q0 23 16.5 39.5t40.5 16.5q23 0 40 -16.5t17 -39.5
q0 -24 -17 -40.5t-40 -16.5zM1593 1479q-47 0 -80.5 33.5t-33.5 80.5t33.5 80.5t80.5 33.5t80.5 -33.5t33.5 -80.5t-33.5 -80.5t-80.5 -33.5zM569 1479q-47 0 -80.5 33.5t-33.5 80.5t33.5 80.5t80.5 33.5t80.5 -33.5t33.5 -80.5t-33.5 -80.5t-80.5 -33.5zM57 1252
q-24 0 -40.5 16.5t-16.5 39.5q0 24 16.5 40.5t40.5 16.5q23 0 40 -16.5t17 -40.5q0 -23 -17 -39.5t-40 -16.5zM1991 1365q24 0 40.5 -16.5t16.5 -40.5q0 -23 -16.5 -39.5t-40.5 -16.5q-23 0 -40 16.5t-17 39.5q0 24 17 40.5t40 16.5zM1650 1139q165 0 281.5 -116.5
t116.5 -281.5q0 -90 -41 -172l-1944 2q-63 108 -63 227q0 188 133.5 321.5t321.5 133.5q77 0 152 -27q-38 -98 -38 -200q0 -24 16.5 -40.5t40.5 -16.5q23 0 40 16.5t17 40.5q0 188 133 321.5t322 133.5q159 0 282 -98.5t159 -250.5q40 7 71 7zM57 341q-24 0 -40.5 17
t-16.5 40q0 24 16.5 40.5t40.5 16.5h1934q24 0 40.5 -16.5t16.5 -40.5q0 -23 -16.5 -40t-40.5 -17h-1934zM1991 228q24 0 40.5 -17t16.5 -40q0 -24 -16.5 -40.5t-40.5 -16.5h-1934q-24 0 -40.5 16.5t-16.5 40.5q0 23 16.5 40t40.5 17h1934z" />
<glyph unicode="&#xf249;" horiz-adv-x="2048" d="M2033 1621q21 -2 25 -23q5 -22 -16 -31l-132 -64q-40 -19 -45 -50q-4 -31 30 -61l111 -96q17 -13 8 -34q-9 -18 -31 -16l-147 23q-48 7 -72 -18q-1 -1 -1 -2q-1 -2 -1 -3q-32 55 -80 103q43 53 52 120q14 99 -47 179t-161 93q-117 15 -201 -69q-40 40 -104 78l2 1
q1 0 1 1q21 23 12 63l-32 140q-5 21 14 31q19 11 34 -4l106 -102q31 -30 66 -24.5t53 44.5l60 129q7 17 29 14.5t25 -21.5l24 -141q7 -42 39.5 -56.5t70.5 6.5l129 71q19 10 34 -5t5 -34l-67 -126q-19 -36 -5 -64q14 -29 60 -35zM1365 683h-967q-165 0 -281.5 116.5
t-116.5 281.5t116.5 281.5t281.5 116.5q40 0 85 -10q-28 -84 -28 -161q0 -23 17 -39.5t40 -16.5t40 16.5t17 39.5q0 165 116.5 282t281.5 117q149 0 260.5 -98t132.5 -244h5q142 0 242 -100t100 -241t-100 -241t-242 -100zM1062 569l-152 -228h228l-569 -341l171 341h-285
l163 228h444z" />
<glyph unicode="&#xf24a;" horiz-adv-x="2048" d="M2029 1531q14 -11 17.5 -28.5t-4.5 -32.5q-44 -82 -121 -137t-168 -73q-49 82 -128 137.5t-174 73.5q-53 156 -190 254q1 4 2 11t1 8q44 163 192 247q99 57 217 57q21 0 35.5 -10.5t18.5 -28.5q4 -17 -4.5 -32.5t-25.5 -22.5q-84 -36 -127 -112.5t-27 -161.5
q16 -88 89.5 -146t168.5 -58q93 0 166 55q13 10 31 10t31 -10zM1365 683h-967q-165 0 -281.5 116.5t-116.5 281.5t116.5 281.5t281.5 116.5q40 0 85 -10q-28 -84 -28 -161q0 -23 17 -39.5t40 -16.5t40 16.5t17 39.5q0 165 116.5 282t281.5 117q149 0 260.5 -98t132.5 -244h5
q142 0 242 -100t100 -241t-100 -241t-242 -100zM1062 569l-152 -228h228l-569 -341l171 341h-285l163 228h444z" />
<glyph unicode="&#xf24b;" horiz-adv-x="2048" d="M910 1934q94 0 161 -66.5t67 -160.5q0 -95 -67 -161.5t-161 -66.5h-853q-24 0 -40.5 17t-16.5 40t16.5 40t40.5 17h657q-31 54 -31 114q0 94 66.5 160.5t160.5 66.5zM1593 1934q94 0 160.5 -66.5t66.5 -160.5q0 -95 -66.5 -161.5t-160.5 -66.5h-430q44 50 68 114h166
q-32 53 -32 114q0 94 67 160.5t161 66.5zM2048 1024q0 -94 -67 -161t-161 -67t-160.5 67t-66.5 161q0 59 31 114h-1567q-24 0 -40.5 16.5t-16.5 40.5q0 23 16.5 40t40.5 17h1763q94 0 161 -67t67 -161zM1593 683q0 -95 -66.5 -161.5t-161.5 -66.5q-94 0 -160.5 67t-66.5 161
q0 59 31 113h-1112q-24 0 -40.5 17t-16.5 40q0 24 16.5 40.5t40.5 16.5h1308q94 0 161 -66.5t67 -160.5zM569 569q13 -27 32 -69.5t50.5 -129t31.5 -120.5q0 -56 -33.5 -96t-80.5 -40t-80.5 40t-33.5 96q0 34 28.5 113.5t56.5 142.5zM1024 569q13 -27 32 -69.5t50.5 -129
t31.5 -120.5q0 -56 -33.5 -96t-80.5 -40t-80.5 40t-33.5 96q0 34 28.5 113.5t57.5 142.5zM1707 569q13 -27 31.5 -69.5t50 -129t31.5 -120.5q0 -56 -33 -96t-80 -40t-80.5 40t-33.5 96q0 34 28.5 113.5t56.5 142.5zM114 569q13 -27 32 -69.5t50.5 -129t31.5 -120.5
q0 -56 -33.5 -96t-80.5 -40t-80.5 40t-33.5 96q0 34 28.5 113.5t57.5 142.5z" />
<glyph unicode="&#xf24c;" horiz-adv-x="2048" d="M57 1479q-24 0 -40.5 17t-16.5 40t16.5 40t40.5 17h657q-31 54 -31 114q0 94 66.5 160.5t160.5 66.5t161 -66.5t67 -160.5q0 -95 -67 -161.5t-161 -66.5h-853zM1820 1707q0 -95 -66.5 -161.5t-160.5 -66.5h-430q44 50 68 114h166q-32 53 -32 114q0 94 67 160.5t161 66.5
t160.5 -66.5t66.5 -160.5zM1820 1252q94 0 161 -67t67 -161t-67 -161t-161 -67t-160.5 67t-66.5 161q0 59 31 114h-1567q-24 0 -40.5 16.5t-16.5 40.5q0 23 16.5 40t40.5 17h1763zM1365 910q94 0 161 -66.5t67 -160.5q0 -95 -66.5 -161.5t-161.5 -66.5q-94 0 -160.5 67
t-66.5 161q0 59 31 113h-1112q-24 0 -40.5 17t-16.5 40q0 24 16.5 40.5t40.5 16.5h1308zM2018 371q13 0 21.5 -8.5t8.5 -21.5q0 -12 -8.5 -20.5t-21.5 -8.5h-125l89 -89q8 -9 8 -21.5t-8 -21.5q-8 -8 -21.5 -8t-21.5 8l-89 90v-126q0 -13 -8.5 -21.5t-21.5 -8.5
q-12 0 -20.5 8.5t-8.5 21.5v126l-89 -90q-8 -8 -21 -8t-21 8q-9 9 -9 22q0 12 9 21l89 89h-126q-13 0 -21.5 8.5t-8.5 20.5q0 13 8.5 21.5t21.5 8.5h126l-89 89q-9 9 -9 21q0 13 9 21q8 8 21 8t21 -8l89 -89v126q0 13 8.5 21.5t21.5 8.5q12 0 20.5 -8.5t8.5 -21.5v-126
l89 89q8 8 21 8t21 -8q9 -8 9 -21q0 -11 -8 -21l-90 -89h126zM1108 371q12 0 21 -8.5t9 -21.5q0 -12 -9 -20.5t-21 -8.5h-126l89 -89q9 -9 9 -21.5t-9 -21.5q-7 -8 -20.5 -8t-21.5 8l-89 90v-126q0 -13 -8.5 -21.5t-21.5 -8.5q-12 0 -20.5 8.5t-8.5 21.5v126l-89 -90
q-8 -8 -21 -8t-21 8q-9 9 -9 22q0 12 9 21l88 89h-126q-12 0 -20.5 8.5t-8.5 20.5q0 13 8.5 21.5t20.5 8.5h126l-88 89q-9 9 -9 21q0 13 9 21q8 8 21 8t21 -8l89 -89v126q0 13 8.5 21.5t20.5 8.5q13 0 21.5 -8.5t8.5 -21.5v-126l89 89q8 8 21 8t21 -8q9 -8 9 -21
q0 -12 -9 -21l-89 -89h126zM425 371q13 0 21.5 -8.5t8.5 -21.5q0 -12 -8.5 -20.5t-21.5 -8.5h-125l89 -89q8 -9 8 -21.5t-8 -21.5q-8 -8 -21.5 -8t-20.5 8l-90 89v-126q0 -12 -8.5 -20.5t-20.5 -8.5q-13 0 -21.5 8.5t-8.5 20.5v126l-89 -89q-7 -8 -21 -8t-21 8q-9 9 -9 22
q0 12 9 21l89 89h-126q-13 0 -21.5 8.5t-8.5 20.5q0 13 8.5 21.5t21.5 8.5h126l-89 89q-9 9 -9 21q0 13 9 21q8 8 21 8t21 -8l89 -89v126q0 13 8.5 21.5t21.5 8.5q12 0 20.5 -8.5t8.5 -21.5v-126l90 89q8 8 21 8t21 -8t8 -21q0 -11 -8 -21l-90 -89h126z" />
<glyph unicode="&#xf24d;" horiz-adv-x="2048" d="M1820 1707q0 -95 -66.5 -161.5t-160.5 -66.5h-430q44 50 68 114h166q-32 53 -32 114q0 94 67 160.5t161 66.5t160.5 -66.5t66.5 -160.5zM57 1479q-24 0 -40.5 17t-16.5 40t16.5 40t40.5 17h657q-31 54 -31 114q0 94 66.5 160.5t160.5 66.5t161 -66.5t67 -160.5
q0 -95 -67 -161.5t-161 -66.5h-853zM1820 1252q94 0 161 -67t67 -161t-67 -161t-161 -67t-160.5 67t-66.5 161q0 59 31 114h-1567q-24 0 -40.5 16.5t-16.5 40.5q0 23 16.5 40t40.5 17h1763zM1365 910q94 0 161 -66.5t67 -160.5q0 -95 -66.5 -161.5t-161.5 -66.5
q-94 0 -160.5 67t-66.5 161q0 59 31 113h-1112q-24 0 -40.5 17t-16.5 40q0 24 16.5 40.5t40.5 16.5h1308zM228 341l113 342l114 -342l-114 -227zM683 341l113 342l114 -342l-114 -227zM1820 683l114 -342l-114 -227l-113 227z" />
<glyph unicode="&#xf24e;" horiz-adv-x="2048" d="M1593 1479l-1593 -1024l569 797h-569l569 796h796l-455 -569h683zM2048 683l-1024 -683l455 569h-455l341 455h569l-341 -341h455z" />
<glyph unicode="&#xf250;" horiz-adv-x="2048" d="M1650 1481q165 0 281.5 -116.5t116.5 -281.5q0 -88 -40 -171h-1945q-63 108 -63 227q0 189 133.5 322.5t321.5 133.5q75 0 152 -28q-38 -98 -38 -200q0 -23 16.5 -40t40.5 -17q23 0 40 17t17 40q0 188 133 321.5t322 133.5q159 0 282 -98.5t159 -249.5q40 7 71 7z
M1991 796q24 0 40.5 -16.5t16.5 -39.5q0 -24 -16.5 -40.5t-40.5 -16.5h-1934q-24 0 -40.5 16.5t-16.5 40.5q0 23 16.5 39.5t40.5 16.5h1934zM1991 569q24 0 40.5 -17t16.5 -40t-16.5 -40t-40.5 -17h-1934q-24 0 -40.5 17t-16.5 40t16.5 40t40.5 17h1934zM1991 341
q24 0 40.5 -16.5t16.5 -40.5q0 -23 -16.5 -39.5t-40.5 -16.5h-1934q-24 0 -40.5 16.5t-16.5 39.5q0 24 16.5 40.5t40.5 16.5h1934z" />
<glyph unicode="&#xf251;" horiz-adv-x="2048" d="M1879 1322q-46 -27 -49 -66q0 -38 43 -69l145 -103q22 -17 12 -40q-8 -23 -35 -23l-180 11q-30 3 -55 -9q-43 73 -114 130q24 57 25 108q5 121 -77 210.5t-203 94.5q-90 3 -167 -45q-92 53 -186 66q0 20 -5 36l-54 164q-9 25 14 39q21 16 41 -1l139 -110
q41 -34 82.5 -23.5t58.5 59.5l57 163q8 21 34.5 20t32.5 -23l44 -167q13 -49 54 -63t84 15l147 99q21 15 42 -1q20 -18 10 -41l-67 -159q-19 -45 0 -77q22 -34 77 -36l185 -3q26 0 33 -26q7 -25 -16 -39zM1707 796h-1701q-6 38 -6 57q0 165 116.5 282t281.5 117q36 0 85 -11
q-28 -84 -28 -160q0 -24 17 -40.5t40 -16.5t40 16.5t17 40.5q0 165 116.5 281.5t281.5 116.5q149 0 260.5 -98t132.5 -244q1 0 2.5 0.5t2.5 0.5q142 0 242 -100t100 -242zM1650 683q23 0 40 -17t17 -40q0 -24 -17 -40.5t-40 -16.5h-1593q-24 0 -40.5 16.5t-16.5 40.5
q0 23 16.5 40t40.5 17h1593zM1650 455q23 0 40 -16.5t17 -40.5q0 -23 -17 -40t-40 -17h-1593q-24 0 -40.5 17t-16.5 40q0 24 16.5 40.5t40.5 16.5h1593zM1650 228q23 0 40 -17t17 -40q0 -24 -17 -40.5t-40 -16.5h-1593q-24 0 -40.5 16.5t-16.5 40.5q0 23 16.5 40t40.5 17
h1593z" />
<glyph unicode="&#xf252;" horiz-adv-x="2048" d="M2028 1380q15 -12 19 -30.5t-5 -35.5q-49 -88 -132.5 -148t-184.5 -78q-7 0 -10 -1q-103 125 -264 156q-32 96 -98.5 172.5t-155.5 121.5q3 42 11 72q47 173 205 264q105 61 234 61q23 0 38 -11.5t19 -30.5q4 -18 -5 -35t-27 -24q-91 -38 -137 -120t-28 -174
q18 -94 96 -155.5t180 -61.5q100 0 178 58q14 11 33.5 11t33.5 -11zM1707 796h-1701q-6 38 -6 57q0 165 116.5 282t281.5 117q36 0 85 -11q-28 -84 -28 -160q0 -24 17 -40.5t40 -16.5t40 16.5t17 40.5q0 165 116.5 281.5t281.5 116.5q149 0 260.5 -98t132.5 -244
q1 0 2.5 0.5t2.5 0.5q142 0 242 -100t100 -242zM1650 683q23 0 40 -17t17 -40q0 -24 -17 -40.5t-40 -16.5h-1593q-24 0 -40.5 16.5t-16.5 40.5q0 23 16.5 40t40.5 17h1593zM1650 455q23 0 40 -16.5t17 -40.5q0 -23 -17 -40t-40 -17h-1593q-24 0 -40.5 17t-16.5 40
q0 24 16.5 40.5t40.5 16.5h1593zM1650 228q23 0 40 -17t17 -40q0 -24 -17 -40.5t-40 -16.5h-1593q-24 0 -40.5 16.5t-16.5 40.5q0 23 16.5 40t40.5 17h1593z" />
<glyph unicode="&#xf253;" horiz-adv-x="2048" d="M1024 1264q-146 0 -250 -104t-104 -250h-268v1l1 1q0 52 -63 93l-204 134q-30 20 -20 54q5 16 18 25.5t29 8.5l248 -6q82 0 113 45q29 42 5 106l-83 222q-12 35 16 55q28 21 57 1l197 -144q59 -44 115 -27t77 85l70 226q10 31 46 31t46 -31l70 -226q21 -68 77 -85t115 27
l197 144q29 20 57 -1q28 -20 16 -55l-83 -222q-24 -64 5 -106q31 -45 107 -45l254 6q16 1 29 -8.5t18 -25.5q10 -34 -20 -54l-204 -134q-63 -41 -63 -93l1 -1v-1h-268q0 146 -104 250t-250 104zM57 683q-24 0 -40.5 16.5t-16.5 40.5q0 23 16.5 39.5t40.5 16.5h1934
q24 0 40.5 -16.5t16.5 -39.5q0 -24 -16.5 -40.5t-40.5 -16.5h-1934zM1991 569q24 0 40.5 -17t16.5 -40t-16.5 -40t-40.5 -17h-1934q-24 0 -40.5 17t-16.5 40t16.5 40t40.5 17h1934zM1991 341q24 0 40.5 -16.5t16.5 -40.5q0 -23 -16.5 -39.5t-40.5 -16.5h-1934
q-24 0 -40.5 16.5t-16.5 39.5q0 24 16.5 40.5t40.5 16.5h1934z" />
<glyph unicode="&#xf254;" horiz-adv-x="2048" d="M1522 910h-903q-116 145 -123 327q-4 115 36.5 222t120.5 193q114 120 277 167q31 8 46 -19q14 -28 -11 -48q-114 -96 -145 -238t34 -270q51 -100 147 -159.5t204.5 -63t217.5 47.5q93 47 156 133q19 26 49 14q28 -12 23 -43q-30 -147 -129 -263zM57 683
q-24 0 -40.5 16.5t-16.5 40.5q0 23 16.5 39.5t40.5 16.5h1934q24 0 40.5 -16.5t16.5 -39.5q0 -24 -16.5 -40.5t-40.5 -16.5h-1934zM1991 569q24 0 40.5 -17t16.5 -40t-16.5 -40t-40.5 -17h-1934q-24 0 -40.5 17t-16.5 40t16.5 40t40.5 17h1934zM1991 341q24 0 40.5 -16.5
t16.5 -40.5q0 -23 -16.5 -39.5t-40.5 -16.5h-1934q-24 0 -40.5 16.5t-16.5 39.5q0 24 16.5 40.5t40.5 16.5h1934z" />
<glyph unicode="&#xf255;" horiz-adv-x="2048" d="M982 1096q-191 38 -279 189q-57 98 -60 218.5t46 235t140 195.5q0 -156 70 -277q104 -178 320 -219q182 -36 277 -80t151 -140q86 -150 49.5 -337.5t-174.5 -311.5q0 155 -71 277q-29 50 -67.5 87.5t-77.5 61.5t-97 44t-105 31t-122 26zM680 641q-191 38 -279 189
q-57 98 -60 218.5t46 235t140 195.5q0 -158 70 -277q102 -177 320 -219q183 -36 277.5 -80t150.5 -140q86 -150 49 -338t-175 -311q2 154 -70 276q-24 42 -53.5 75t-66 57.5t-71.5 41.5t-85 32t-90.5 24t-102.5 21z" />
<glyph unicode="&#xf381;" horiz-adv-x="2048" d="M1593 1593q94 0 160.5 -66.5t66.5 -161.5v-455h-113v455q0 47 -33.5 80.5t-80.5 33.5h-1138q-47 0 -80.5 -33.5t-33.5 -80.5v-455h-113v455q0 95 66.5 161.5t160.5 66.5h455v341h228v-341h455zM1394 796h426v-455q0 -94 -66.5 -160.5t-160.5 -66.5h-1138
q-94 0 -160.5 66.5t-66.5 160.5v455h426v138q-39 22 -62 61t-23 86q0 71 50 121t121 50q70 0 120 -50t50 -121q0 -47 -23 -86t-62 -61v-138h398v138q-39 22 -62 61t-23 86q0 71 50 121t120 50q71 0 121 -50t50 -121q0 -47 -23 -86t-62 -61v-138zM1707 341v228h-313v-171
q0 -35 -25 -60t-61 -25q-35 0 -60 25t-25 60v171h-398v-171q0 -35 -25 -60t-60 -25q-36 0 -61 25t-25 60v171h-313v-228q0 -47 33.5 -80t80.5 -33h1138q47 0 80.5 33t33.5 80z" />
<glyph unicode="&#xf382;" horiz-adv-x="2048" d="M1707 1593q94 0 160.5 -67t66.5 -161v-455h-114v455q0 47 -33 80.5t-80 33.5h-1366q-47 0 -80 -33.5t-33 -80.5v-455h-114v455q0 94 66.5 161t160.5 67h569v341h228v-341h569zM1564 796h370v-455q0 -94 -66.5 -160.5t-160.5 -66.5h-1366q-94 0 -160.5 66.5t-66.5 160.5
v455h370v138q-39 22 -62.5 61.5t-23.5 85.5q0 71 50 121t121 50t121 -50t50 -121q0 -46 -23.5 -85.5t-62.5 -61.5v-138h285v138q-39 22 -62.5 61.5t-23.5 85.5q0 71 50.5 121t120.5 50t120.5 -50t50.5 -121q0 -46 -23.5 -85.5t-62.5 -61.5v-138h285v138q-39 22 -62.5 61.5
t-23.5 85.5q0 71 50 121t121 50t121 -50t50 -121q0 -46 -23.5 -85.5t-62.5 -61.5v-138zM1820 341v228h-256v-171q0 -35 -25 -60t-60 -25t-60 25t-25 60v171h-285v-171q0 -35 -25 -60t-60 -25t-60 25t-25 60v171h-285v-171q0 -35 -25 -60t-60 -25t-60 25t-25 60v171h-256
v-228q0 -47 33 -80t80 -33h1366q47 0 80 33t33 80z" />
<glyph unicode="&#xf383;" horiz-adv-x="2048" d="M1820 1593q94 0 161 -66.5t67 -161.5v-455h-114v455q0 47 -33.5 80.5t-80.5 33.5h-1592q-47 0 -80.5 -33.5t-33.5 -80.5v-455h-114v455q0 95 67 161.5t161 66.5h682v341h228v-341h682zM1735 796h313v-455q0 -94 -67 -160.5t-161 -66.5h-1592q-94 0 -161 66.5t-67 160.5
v455h313v138q-39 22 -62 61t-23 86q0 71 50 121t120 50q71 0 121 -50t50 -121q0 -46 -23.5 -85.5t-61.5 -61.5v-138h246v138q-39 22 -62 61t-23 86q0 71 50 121t120 50q71 0 121 -50t50 -121q0 -47 -23 -86t-62 -61v-138h246v138q-39 22 -62 61t-23 86q0 71 50 121t121 50
q70 0 120 -50t50 -121q0 -47 -23 -86t-62 -61v-138h246v138q-38 22 -61.5 61.5t-23.5 85.5q0 71 50.5 121t120.5 50t120 -50t50 -121q0 -47 -23 -86t-62 -61v-138zM1934 341v228h-199v-171q0 -35 -25 -60t-60 -25t-60.5 25t-25.5 60v171h-246v-171q0 -35 -25 -60t-60 -25
t-60.5 25t-25.5 60v171h-246v-171q0 -35 -25 -60t-61 -25q-35 0 -60 25t-25 60v171h-246v-171q0 -35 -25.5 -60t-60.5 -25t-60 25t-25 60v171h-199v-228q0 -47 33.5 -80t80.5 -33h1592q47 0 80.5 33t33.5 80z" />
<glyph unicode="&#xf390;" horiz-adv-x="2048" d="M1024 1707q185 0 342.5 -91.5t249 -249t91.5 -342.5t-91.5 -342.5t-249 -249t-342.5 -91.5t-342.5 91.5t-249 249t-91.5 342.5t91.5 342.5t249 249t342.5 91.5z" />
<glyph unicode="&#xf391;" horiz-adv-x="2048" d="M1707 1707v-1366h-1366v1366h1366z" />
<glyph unicode="&#xf392;" horiz-adv-x="2048" d="M1820 1024l-796 -910l-796 910l796 910z" />
<glyph unicode="&#xf393;" horiz-adv-x="2048" d="M1024 1024l-512 -910l-512 910l512 910zM2048 1024l-512 -910l-512 910l512 910z" />
<glyph unicode="&#xf531;" horiz-adv-x="2048" d="M1024 1820q162 0 309.5 -63t254 -169.5t169.5 -254t63 -309.5t-63 -309.5t-169.5 -254t-254 -169.5t-309.5 -63t-309.5 63t-254 169.5t-169.5 254t-63 309.5t63 309.5t169.5 254t254 169.5t309.5 63zM1024 341q138 0 264.5 54.5t218 146t146 218t54.5 264.5t-54.5 264.5
t-146 218t-218 146t-264.5 54.5t-264.5 -54.5t-218 -146t-146 -218t-54.5 -264.5t54.5 -264.5t146 -218t218 -146t264.5 -54.5zM922 1295q130 53 481 108q-24 -156 -51 -276.5t-42 -162.5l-15 -42q-32 -86 -105.5 -137.5t-164.5 -51.5q-116 0 -205 87q-87 89 -87 205
q0 91 51.5 164.5t137.5 105.5zM1025 882q59 1 100.5 42.5t41.5 99.5q0 59 -42 101t-101 42q-58 0 -99.5 -41.5t-42.5 -100.5q0 -59 42 -101t101 -42z" />
<glyph unicode="&#xf532;" horiz-adv-x="2048" d="M1024 1820q162 0 309.5 -63t254 -169.5t169.5 -254t63 -309.5t-63 -309.5t-169.5 -254t-254 -169.5t-309.5 -63t-309.5 63t-254 169.5t-169.5 254t-63 309.5t63 309.5t169.5 254t254 169.5t309.5 63zM1024 341q138 0 264.5 54.5t218 146t146 218t54.5 264.5t-54.5 264.5
t-146 218t-218 146t-264.5 54.5t-264.5 -54.5t-218 -146t-146 -218t-54.5 -264.5t54.5 -264.5t146 -218t218 -146t264.5 -54.5zM1021 1314q66 0 122 -26q15 -6 44.5 -21t137 -82.5t234.5 -160.5q-127 -93 -231 -159t-144 -85l-41 -20q-56 -26 -122 -26q-119 0 -202 84
q-83 83 -83 206t83 206q83 84 202 84zM1025 882q59 0 100.5 41.5t41.5 100.5t-41.5 100.5t-100.5 41.5t-100.5 -41.5t-41.5 -100.5t41.5 -100.5t100.5 -41.5z" />
<glyph unicode="&#xf533;" horiz-adv-x="2048" d="M1024 1820q162 0 309.5 -63t254 -169.5t169.5 -254t63 -309.5t-63 -309.5t-169.5 -254t-254 -169.5t-309.5 -63t-309.5 63t-254 169.5t-169.5 254t-63 309.5t63 309.5t169.5 254t254 169.5t309.5 63zM1024 341q138 0 264.5 54.5t218 146t146 218t54.5 264.5t-54.5 264.5
t-146 218t-218 146t-264.5 54.5t-264.5 -54.5t-218 -146t-146 -218t-54.5 -264.5t54.5 -264.5t146 -218t218 -146t264.5 -54.5zM922 753q-86 32 -137.5 105.5t-51.5 164.5q0 116 87 205q89 87 205 87q91 0 164.5 -51.5t105.5 -137.5q53 -130 107 -481q-156 24 -276 51
t-162 42zM882 1023q1 -59 42.5 -100.5t100.5 -41.5t100.5 42t41.5 101q0 58 -41.5 99.5t-100.5 42.5q-59 0 -101 -42t-42 -101z" />
<glyph unicode="&#xf534;" horiz-adv-x="2048" d="M1024 1820q162 0 309.5 -63t254 -169.5t169.5 -254t63 -309.5t-63 -309.5t-169.5 -254t-254 -169.5t-309.5 -63t-309.5 63t-254 169.5t-169.5 254t-63 309.5t63 309.5t169.5 254t254 169.5t309.5 63zM1024 341q138 0 264.5 54.5t218 146t146 218t54.5 264.5t-54.5 264.5
t-146 218t-218 146t-264.5 54.5t-264.5 -54.5t-218 -146t-146 -218t-54.5 -264.5t54.5 -264.5t146 -218t218 -146t264.5 -54.5zM1024 1312q124 0 206 -83q84 -83 84 -202q0 -66 -26 -122q-6 -15 -21 -44.5t-82.5 -137t-160.5 -234.5q-93 127 -159 231t-85 144l-20 41
q-26 56 -26 122q0 119 84 203q82 82 206 82zM1024 881q59 0 100.5 41.5t41.5 100.5t-41.5 100.5t-100.5 41.5t-100.5 -41.5t-41.5 -100.5t41.5 -100.5t100.5 -41.5z" />
<glyph unicode="&#xf535;" horiz-adv-x="2048" d="M1024 1820q162 0 309.5 -63t254 -169.5t169.5 -254t63 -309.5t-63 -309.5t-169.5 -254t-254 -169.5t-309.5 -63t-309.5 63t-254 169.5t-169.5 254t-63 309.5t63 309.5t169.5 254t254 169.5t309.5 63zM1024 341q138 0 264.5 54.5t218 146t146 218t54.5 264.5t-54.5 264.5
t-146 218t-218 146t-264.5 54.5t-264.5 -54.5t-218 -146t-146 -218t-54.5 -264.5t54.5 -264.5t146 -218t218 -146t264.5 -54.5zM753 1126q32 86 105.5 137.5t164.5 51.5q116 0 205 -87q87 -89 87 -205q0 -91 -51.5 -164.5t-137.5 -105.5q-130 -53 -480 -107q24 156 51 276
t41 162zM1023 1166q-59 -1 -100.5 -42.5t-41.5 -100.5t42 -100.5t101 -41.5q58 0 99.5 42t42.5 101q0 59 -42 100.5t-101 41.5z" />
<glyph unicode="&#xf536;" horiz-adv-x="2048" d="M1024 1820q162 0 309.5 -63t254 -169.5t169.5 -254t63 -309.5t-63 -309.5t-169.5 -254t-254 -169.5t-309.5 -63t-309.5 63t-254 169.5t-169.5 254t-63 309.5t63 309.5t169.5 254t254 169.5t309.5 63zM1024 341q138 0 264.5 54.5t218 146t146 218t54.5 264.5t-54.5 264.5
t-146 218t-218 146t-264.5 54.5t-264.5 -54.5t-218 -146t-146 -218t-54.5 -264.5t54.5 -264.5t146 -218t218 -146t264.5 -54.5zM489 1024q128 93 232 159t144 85l40 20q56 26 122 26q120 0 203 -83q82 -85 82 -207t-82 -206q-84 -84 -202 -84q-63 0 -123 27
q-15 6 -44.5 20.5t-137 82t-234.5 160.5zM1023 1166q-59 0 -100.5 -41.5t-41.5 -100.5t41.5 -100.5t100.5 -41.5t100.5 41.5t42.5 100.5q-1 59 -42.5 100.5t-100.5 41.5z" />
<glyph unicode="&#xf537;" horiz-adv-x="2048" d="M1024 1820q162 0 309.5 -63t254 -169.5t169.5 -254t63 -309.5t-63 -309.5t-169.5 -254t-254 -169.5t-309.5 -63t-309.5 63t-254 169.5t-169.5 254t-63 309.5t63 309.5t169.5 254t254 169.5t309.5 63zM1024 341q138 0 264.5 54.5t218 146t146 218t54.5 264.5t-54.5 264.5
t-146 218t-218 146t-264.5 54.5t-264.5 -54.5t-218 -146t-146 -218t-54.5 -264.5t54.5 -264.5t146 -218t218 -146t264.5 -54.5zM1126 1295q86 -32 137.5 -105.5t51.5 -164.5q0 -116 -87 -205q-89 -87 -205 -87q-91 0 -164.5 51.5t-105.5 137.5q-6 15 -16.5 46t-39 155
t-52.5 280q156 -24 276.5 -51t162.5 -42zM1166 1025q-1 59 -42.5 100.5t-100.5 41.5t-100.5 -42t-41.5 -101q0 -58 41.5 -99.5t100.5 -42.5q59 0 101 42t42 101z" />
<glyph unicode="&#x1f300;" horiz-adv-x="2048" d="M1024 1625q159 0 294.5 -79t214.5 -214.5t79 -294.5q0 -103 -39 -210q-43 -168 -158.5 -348.5t-328.5 -408.5q-27 -29 -60 -29q-35 0 -58.5 23.5t-23.5 56.5q0 30 22 55q1 0 24.5 26.5t62.5 72.5t74 87l86 102q-102 -14 -189 -14q-159 0 -294.5 78.5t-214.5 214
t-79 294.5q0 103 39 211q50 193 177.5 392.5t308.5 364.5q31 29 63 29q31 0 56 -24t25 -56q0 -29 -26 -58q-81 -84 -161 -184l-85 -103q109 16 191 16zM1024 816q92 0 156.5 65t64.5 156q0 92 -64.5 157t-156.5 65t-156.5 -65t-64.5 -157q0 -91 64.5 -156t156.5 -65z" />
<glyph unicode="&#x1f305;" horiz-adv-x="2048" d="M340 1005l-204 134q-30 20 -20 54q5 16 18 25.5t29 8.5l248 -6q82 0 113 45q29 42 5 106l-83 222q-12 35 16 55q28 21 57 1l197 -144q59 -44 115 -27t77 85l70 226q10 31 46 31t46 -31l70 -226q21 -68 77 -85t115 27l197 144q29 20 57 -1q28 -20 16 -55l-83 -222
q-24 -64 5 -106q31 -45 107 -45l254 6q16 1 29 -8.5t18 -25.5q10 -34 -20 -54l-204 -134q-63 -41 -63 -93l1 -1v-1h-268q0 146 -104 250t-250 104t-250 -104t-104 -250h-268v1l1 1q0 52 -63 93zM1619 528q36 -30 28.5 -51.5t-54.5 -21.5h-341v-227h-456v227h-341
q-47 0 -54.5 21.5t28.5 51.5l508 423q36 30 87 30t87 -30z" />
<glyph unicode="&#x1f307;" horiz-adv-x="2048" d="M340 1005l-204 134q-30 20 -20 54q5 16 18 25.5t29 8.5l248 -6q82 0 113 45q29 42 5 106l-83 222q-12 35 16 55q28 21 57 1l197 -144q59 -44 115 -27t77 85l70 226q10 31 46 31t46 -31l70 -226q21 -68 77 -85t115 27l197 144q29 20 57 -1q28 -20 16 -55l-83 -222
q-24 -64 5 -106q31 -45 107 -45l254 6q16 1 29 -8.5t18 -25.5q10 -34 -20 -54l-204 -134q-63 -41 -63 -93l1 -1v-1h-268q0 146 -104 250t-250 104t-250 -104t-104 -250h-268v1l1 1q0 52 -63 93zM1593 569q47 0 54.5 -21.5t-28.5 -51.5l-508 -423q-36 -30 -87 -30t-87 30
l-508 423q-36 30 -28.5 51.5t54.5 21.5h341v227h456v-227h341z" />
<glyph unicode="&#x1f308;" horiz-adv-x="2048" d="M341 1013q-124 -27 -227 -106v231q0 185 72 353.5t194 290.5t290.5 194t353.5 72t353.5 -72t290.5 -194t194 -290.5t72 -353.5v-315q-97 66 -227 82v233q0 138 -54.5 264.5t-146 218t-217.5 145.5t-265 54t-265 -54t-217.5 -145.5t-146 -218t-54.5 -264.5v-125zM657 986
q-119 38 -202 38v114q0 154 76 285t207.5 207.5t285.5 76.5t285.5 -76.5t207.5 -207.5t76 -285v-117q-92 124 -235 185q-23 118 -117 195.5t-217 77.5q-141 0 -241 -100t-100 -241v-116q-21 -29 -26 -36zM1650 0h-1195q-188 0 -321.5 133.5t-133.5 321.5q0 189 133.5 322
t321.5 133q77 0 152 -27q-38 -98 -38 -200q0 -24 16.5 -40.5t40.5 -16.5q23 0 40 16.5t17 40.5q0 188 133 321.5t322 133.5q159 0 282 -98.5t159 -250.5q40 7 71 7q165 0 281.5 -116.5t116.5 -281.5t-116.5 -281.5t-281.5 -116.5z" />
<glyph unicode="&#x1f311;" horiz-adv-x="2048" d="M228 1024q0 162 63 309.5t169.5 254t254 169.5t309.5 63t309.5 -63t254 -169.5t169.5 -254t63 -309.5t-63 -309.5t-169.5 -254t-254 -169.5t-309.5 -63t-309.5 63t-254 169.5t-169.5 254t-63 309.5zM1707 1024q0 138 -54.5 264.5t-146 218t-218 146t-264.5 54.5
t-264.5 -54.5t-218 -146t-146 -218t-54.5 -264.5t54.5 -264.5t146 -218t218 -146t264.5 -54.5t264.5 54.5t218 146t146 218t54.5 264.5zM1024 1593q116 0 221 -45t181.5 -121.5t121.5 -181.5t45 -221t-45 -221t-121.5 -181.5t-181.5 -121.5t-221 -45t-221 45t-181.5 121.5
t-121.5 181.5t-45 221t45 221t121.5 181.5t181.5 121.5t221 45z" />
<glyph unicode="&#x1f312;" horiz-adv-x="2048" d="M1820 1024q0 -162 -63 -309.5t-169.5 -254t-254 -169.5t-309.5 -63t-309.5 63t-254 169.5t-169.5 254t-63 309.5t63 309.5t169.5 254t254 169.5t309.5 63t309.5 -63t254 -169.5t169.5 -254t63 -309.5zM341 1024q0 -138 54.5 -264.5t146 -218t218 -146t264.5 -54.5
t264.5 54.5t218 146t146 218t54.5 264.5t-54.5 264.5t-146 218t-218 146t-264.5 54.5t-264.5 -54.5t-218 -146t-146 -218t-54.5 -264.5zM1024 1593q92 0 171 -76t124.5 -207.5t45.5 -285.5t-45.5 -285.5t-124.5 -207.5t-171 -76q-116 0 -221 45t-181.5 121.5t-121.5 181.5
t-45 221t45 221t121.5 181.5t181.5 121.5t221 45z" />
<glyph unicode="&#x1f313;" horiz-adv-x="2048" d="M1820 1024q0 -162 -63 -309.5t-169.5 -254t-254 -169.5t-309.5 -63t-309.5 63t-254 169.5t-169.5 254t-63 309.5t63 309.5t169.5 254t254 169.5t309.5 63t309.5 -63t254 -169.5t169.5 -254t63 -309.5zM341 1024q0 -138 54.5 -264.5t146 -218t218 -146t264.5 -54.5
t264.5 54.5t218 146t146 218t54.5 264.5t-54.5 264.5t-146 218t-218 146t-264.5 54.5t-264.5 -54.5t-218 -146t-146 -218t-54.5 -264.5zM1024 455q-116 0 -221 45t-181.5 121.5t-121.5 181.5t-45 221t45 221t121.5 181.5t181.5 121.5t221 45v-1138z" />
<glyph unicode="&#x1f314;" horiz-adv-x="2048" d="M1820 1024q0 -162 -63 -309.5t-169.5 -254t-254 -169.5t-309.5 -63t-309.5 63t-254 169.5t-169.5 254t-63 309.5t63 309.5t169.5 254t254 169.5t309.5 63t309.5 -63t254 -169.5t169.5 -254t63 -309.5zM341 1024q0 -138 54.5 -264.5t146 -218t218 -146t264.5 -54.5
t264.5 54.5t218 146t146 218t54.5 264.5t-54.5 264.5t-146 218t-218 146t-264.5 54.5t-264.5 -54.5t-218 -146t-146 -218t-54.5 -264.5zM1024 455q-116 0 -221 45t-181.5 121.5t-121.5 181.5t-45 221t45 221t121.5 181.5t181.5 121.5t221 45q77 0 171 -29
q-176 -56 -287.5 -204t-111.5 -336t111.5 -336t287.5 -204q-94 -29 -171 -29z" />
<glyph unicode="&#x1f315;" horiz-adv-x="2048" d="M228 1024q0 162 63 309.5t169.5 254t254 169.5t309.5 63t309.5 -63t254 -169.5t169.5 -254t63 -309.5t-63 -309.5t-169.5 -254t-254 -169.5t-309.5 -63t-309.5 63t-254 169.5t-169.5 254t-63 309.5zM1707 1024q0 138 -54.5 264.5t-146 218t-218 146t-264.5 54.5
t-264.5 -54.5t-218 -146t-146 -218t-54.5 -264.5t54.5 -264.5t146 -218t218 -146t264.5 -54.5t264.5 54.5t218 146t146 218t54.5 264.5zM455 1024q0 116 45 221t121.5 181.5t181.5 121.5t221 45t221 -45t181.5 -121.5t121.5 -181.5t45 -221t-45 -221t-121.5 -181.5
t-181.5 -121.5t-221 -45t-221 45t-181.5 121.5t-121.5 181.5t-45 221zM1479 1024q0 188 -133.5 321.5t-321.5 133.5t-321.5 -133.5t-133.5 -321.5t133.5 -321.5t321.5 -133.5t321.5 133.5t133.5 321.5z" />
<glyph unicode="&#x1f316;" horiz-adv-x="2048" d="M228 1024q0 162 63 309.5t169.5 254t254 169.5t309.5 63t309.5 -63t254 -169.5t169.5 -254t63 -309.5t-63 -309.5t-169.5 -254t-254 -169.5t-309.5 -63t-309.5 63t-254 169.5t-169.5 254t-63 309.5zM1707 1024q0 138 -54.5 264.5t-146 218t-218 146t-264.5 54.5
t-264.5 -54.5t-218 -146t-146 -218t-54.5 -264.5t54.5 -264.5t146 -218t218 -146t264.5 -54.5t264.5 54.5t218 146t146 218t54.5 264.5zM1024 1593q116 0 221 -45t181.5 -121.5t121.5 -181.5t45 -221t-45 -221t-121.5 -181.5t-181.5 -121.5t-221 -45q-77 0 -171 29
q176 56 287.5 204t111.5 336t-111.5 336t-287.5 204q94 29 171 29z" />
<glyph unicode="&#x1f317;" horiz-adv-x="2048" d="M228 1024q0 162 63 309.5t169.5 254t254 169.5t309.5 63t309.5 -63t254 -169.5t169.5 -254t63 -309.5t-63 -309.5t-169.5 -254t-254 -169.5t-309.5 -63t-309.5 63t-254 169.5t-169.5 254t-63 309.5zM1707 1024q0 138 -54.5 264.5t-146 218t-218 146t-264.5 54.5
t-264.5 -54.5t-218 -146t-146 -218t-54.5 -264.5t54.5 -264.5t146 -218t218 -146t264.5 -54.5t264.5 54.5t218 146t146 218t54.5 264.5zM1024 1593q116 0 221 -45t181.5 -121.5t121.5 -181.5t45 -221t-45 -221t-121.5 -181.5t-181.5 -121.5t-221 -45v1138z" />
<glyph unicode="&#x1f318;" horiz-adv-x="2048" d="M228 1024q0 162 63 309.5t169.5 254t254 169.5t309.5 63t309.5 -63t254 -169.5t169.5 -254t63 -309.5t-63 -309.5t-169.5 -254t-254 -169.5t-309.5 -63t-309.5 63t-254 169.5t-169.5 254t-63 309.5zM1707 1024q0 138 -54.5 264.5t-146 218t-218 146t-264.5 54.5
t-264.5 -54.5t-218 -146t-146 -218t-54.5 -264.5t54.5 -264.5t146 -218t218 -146t264.5 -54.5t264.5 54.5t218 146t146 218t54.5 264.5zM1024 1593q116 0 221 -45t181.5 -121.5t121.5 -181.5t45 -221t-45 -221t-121.5 -181.5t-181.5 -121.5t-221 -45q-92 0 -171 76
t-124.5 207.5t-45.5 285.5t45.5 285.5t124.5 207.5t171 76z" />
<glyph unicode="&#x1f319;" horiz-adv-x="2048" d="M1807 578q14 -16 14.5 -36.5t-12.5 -36.5q-128 -162 -313 -248t-415 -86q-174 0 -331.5 67.5t-272 181.5t-182 272t-67.5 332t67.5 331.5t182 272t272 182t331.5 67.5q118 0 203 -17q21 -5 34.5 -20.5t14.5 -36.5q0 -20 -13 -36.5t-34 -20.5q-218 -50 -356.5 -219
t-138.5 -386q0 -168 86.5 -311t234.5 -226.5t322 -83.5q160 0 299 72q19 9 39.5 5t34.5 -19z" />
<glyph unicode="&#x1f320;" horiz-adv-x="2048" d="M171 1849q301 0 570.5 -120.5t468.5 -333.5l-52 -112q-185 212 -441 332t-546 120q-24 0 -40.5 17t-16.5 40t16.5 40t40.5 17zM171 1579q274 0 512.5 -121t400.5 -332l-29 -60l-61 -10q-145 190 -360.5 299.5t-462.5 109.5q-24 0 -40.5 16.5t-16.5 40.5q0 23 16.5 40
t40.5 17zM1877 902l-284 -291l67 -412l-352 194l-351 -194l67 412l-284 291l393 60l175 375l176 -375zM114 1252q0 23 16.5 39.5t40.5 16.5q186 0 352.5 -74t289.5 -205l-141 -22q-103 90 -231.5 139t-269.5 49q-24 0 -40.5 16.5t-16.5 40.5z" />
<glyph unicode="&#x1f4a7;" horiz-adv-x="2048" d="M1024 1934q21 -40 55 -107t121 -251t154 -340.5t121.5 -323.5t54.5 -252q0 -149 -67.5 -274.5t-184 -198.5t-254.5 -73t-254.5 73t-184 198.5t-67.5 274.5q0 85 52 247t126.5 333.5t149 330.5t126.5 261z" />
<glyph unicode="&#x1f6a1;" horiz-adv-x="2048" d="M740 1707q-71 0 -121 49.5t-50 120.5t50 121t121 50t120.5 -50t49.5 -121t-50 -120.5t-120 -49.5zM1308 1707q-70 0 -120 49.5t-50 120.5t49.5 121t120.5 50t121 -50t50 -121t-50 -120.5t-121 -49.5zM0 1593h2048v-114h-910v-114h-228v114h-910v114zM1707 1252
q94 0 160.5 -67t66.5 -161v-796q0 -94 -66.5 -161t-160.5 -67h-1366q-94 0 -160.5 67t-66.5 161v796q0 94 66.5 161t160.5 67h1366zM1820 683v227q0 47 -33 80.5t-80 33.5h-228q-47 0 -80.5 -33.5t-33.5 -80.5v-227q0 -47 33.5 -80.5t80.5 -33.5h228q47 0 80 33.5t33 80.5z
M683 683v227q0 47 -33.5 80.5t-80.5 33.5h-228q-47 0 -80 -33.5t-33 -80.5v-227q0 -47 33 -80.5t80 -33.5h228q47 0 80.5 33.5t33.5 80.5zM1252 683v227q0 47 -33.5 80.5t-80.5 33.5h-228q-47 0 -80.5 -33.5t-33.5 -80.5v-227q0 -47 33.5 -80.5t80.5 -33.5h228
q47 0 80.5 33.5t33.5 80.5z" />
<glyph   />
<glyph  horiz-adv-x="682"  />
<glyph unicode=" " horiz-adv-x="512"  />
<glyph unicode="A" horiz-adv-x="1375" d="M1344 0h-218l-145 429h-595l-154 -429h-204l555 1479h230zM905 607l-218 654l-237 -654h455z" />
<glyph unicode="B" horiz-adv-x="1375" d="M1287 443q0 -132 -64.5 -234.5t-168.5 -155.5t-227 -53h-680v1479h668q165 0 280 -99t119 -275q0 -100 -50 -187.5t-142 -121.5q117 -41 191 -133.5t74 -219.5zM1017 1062q0 122 -62.5 181t-219.5 63h-384v-455h389q139 0 206 60.5t71 150.5zM1088 417q0 66 -14 111.5
t-50.5 82.5t-105 56t-171.5 20h-396v-519h462q69 0 123 23t85.5 60.5t48 79.5t18.5 86z" />
<glyph unicode="C" horiz-adv-x="1489" d="M1403 543q-11 -96 -44.5 -183t-89 -160t-128 -126.5t-167 -83.5t-201.5 -30q-150 0 -270.5 49t-196.5 127.5t-127.5 184t-72.5 212t-21 218.5q0 116 27 225t82.5 206t135 170.5t191 118t242.5 48.5q57 0 115.5 -9t125.5 -28.5t127.5 -57t113 -89t90.5 -129.5t52 -173
h-195q-29 147 -137.5 225.5t-262.5 78.5q-105 0 -189 -31t-140.5 -84t-94 -128.5t-55 -160t-19.5 -182.5q2 -91 19 -177t53 -166t87.5 -139.5t128 -95.5t169.5 -36q193 0 310 107t146 299h196z" />
<glyph unicode="D" horiz-adv-x="1489" d="M1384 792q0 -125 -24.5 -240.5t-74 -215t-119 -173.5t-166 -117.5t-208.5 -45.5h-628v1479h621q77 0 155.5 -22t157.5 -74.5t140 -129t101.5 -196t44.5 -265.5zM1178 775q0 85 -13.5 160.5t-45.5 144t-79.5 118t-120 79t-163.5 29.5h-389v-1138h413q119 0 210.5 81
t139.5 218t48 308z" />
<glyph unicode="E" horiz-adv-x="1375" d="M1266 0h-1093v1479h1081v-180h-879v-450h810v-178h-810v-493h891v-178z" />
<glyph unicode="F" horiz-adv-x="1256" d="M1197 1299h-822v-450h725v-178h-725v-671h-202v1479h1024v-180z" />
<glyph unicode="G" horiz-adv-x="1598" d="M1446 0h-128l-47 197q-70 -98 -200 -161.5t-286 -68.5q-146 0 -262 39t-195 108.5t-131.5 168.5t-76 215t-23.5 253q0 112 26.5 219.5t83.5 205t137.5 171t197 118t254.5 45.5q113 0 217.5 -31t190.5 -90t144.5 -152t73.5 -208h-192q-27 109 -95 180t-154 99.5t-194 28.5
q-212 0 -349 -161.5t-137 -435.5q0 -295 134 -454.5t352 -159.5q173 0 310 106q91 74 125.5 158.5t38.5 225.5h-460v171h645v-787z" />
<glyph unicode="H" horiz-adv-x="1489" d="M1332 0h-201v687h-773v-687h-202v1479h202v-614h773v614h201v-1479z" />
<glyph unicode="I" horiz-adv-x="569" d="M386 0h-201v1479h201v-1479z" />
<glyph unicode="J" horiz-adv-x="1029" d="M882 398q0 -117 -33.5 -203t-93.5 -136t-134.5 -73.5t-165.5 -25.5q-93 0 -167 23t-121 60t-78 86.5t-43.5 99t-12.5 100.5v145h187v-104q0 -123 54.5 -181.5t168.5 -58.5q122 0 177.5 62t57.5 194v1093h204v-1081z" />
<glyph unicode="K" horiz-adv-x="1375" d="M1363 0h-258l-520 740l-232 -221v-519h-201v1479h201v-720l718 720h275l-616 -597z" />
<glyph unicode="L" horiz-adv-x="1147" d="M1105 0h-953v1479h201v-1301h752v-178z" />
<glyph unicode="M" horiz-adv-x="1711" d="M1567 0h-197v1242l-412 -1242h-199l-422 1240v-1240h-190v1479h287l426 -1254l422 1254h285v-1479z" />
<glyph unicode="N" horiz-adv-x="1489" d="M1332 0h-227l-754 1192v-1192h-195v1479h237l745 -1197v1197h194v-1479z" />
<glyph unicode="O" horiz-adv-x="1598" d="M1519 740q0 -56 -5.5 -112t-23.5 -134.5t-48 -146.5t-85 -138.5t-127.5 -121t-182.5 -83.5t-243 -35q-145 0 -265.5 43t-203 116.5t-140 172.5t-84 209.5t-26.5 229.5q0 124 27 236t85 209t141.5 168.5t202.5 113t263 43.5q113 0 211 -25.5t169.5 -69.5t129.5 -105
t95.5 -129.5t63 -145t36 -149.5t10.5 -146zM1318 740q0 264 -136.5 426t-377.5 166q-230 0 -372.5 -160.5t-142.5 -431.5q0 -267 138 -428t377 -165q241 0 377.5 162.5t136.5 430.5z" />
<glyph unicode="P" horiz-adv-x="1375" d="M1278 1062q0 -66 -14 -126t-47 -117t-82.5 -99t-125.5 -68.5t-170 -28.5h-464v-623h-202v1479h666q188 0 311 -109t128 -308zM1071 1062q0 244 -291 244h-405v-514h398q295 0 298 270z" />
<glyph unicode="Q" horiz-adv-x="1598" d="M1519 740q0 -358 -215 -569l201 -157l-97 -121l-228 178q-155 -102 -379 -102q-145 0 -265.5 43t-203.5 116.5t-140.5 172.5t-84 209.5t-26.5 229.5q0 124 27 236t85 209t141.5 168.5t203 113t263.5 43.5q113 0 210.5 -25.5t169.5 -69.5t130 -105t96.5 -129.5t64 -145
t36.5 -149.5t11 -146zM1313 740q0 264 -135.5 426t-376.5 166q-231 0 -372.5 -160t-141.5 -432q0 -268 137 -428.5t377 -164.5q119 0 216 47l-154 117l102 125l189 -144q159 165 159 448z" />
<glyph unicode="R" horiz-adv-x="1489" d="M1384 0h-225q-26 57 -37.5 150t-15 186.5t-6.5 113.5q-26 178 -242 181h-502v-631h-202v1479h709q89 0 169 -24t146 -71.5t106 -128t43 -184.5q0 -230 -215 -343q79 -25 126 -87t56 -153q6 -56 12.5 -157t14.5 -165.5t25 -106.5q18 -42 38 -59zM1124 1052
q0 112 -58.5 181t-186.5 73h-523v-502h507q112 0 186.5 69t74.5 179z" />
<glyph unicode="S" horiz-adv-x="1375" d="M1273 415q0 -145 -76.5 -247.5t-204.5 -150.5t-297 -48q-284 0 -438 127t-155 392h185q0 -78 24 -139t62.5 -98.5t93.5 -62.5t109.5 -35.5t118.5 -12.5q59 0 112 7.5t104 25.5t88 45.5t59.5 71t22.5 99.5q0 39 -8.5 69.5t-24.5 54t-44.5 42.5t-64 34t-88 29.5t-110.5 28
t-138 31.5q-36 8 -55 12q-67 15 -119.5 32.5t-106.5 47.5t-90 67.5t-59.5 94t-25.5 125.5q0 92 30 171.5t90 143.5t161 101t231 37q111 0 201.5 -21t148 -51t101.5 -77.5t65.5 -84.5t36 -89.5t17 -75.5t5.5 -58q1 -9 1 -12h-185q0 63 -21.5 114t-57 84.5t-85 56.5
t-100.5 33.5t-108 12.5q-51 0 -96 -6.5t-90.5 -24.5t-77.5 -46.5t-52.5 -75.5t-20.5 -108q0 -141 178 -180l422 -97q332 -74 332 -389z" />
<glyph unicode="T" horiz-adv-x="1256" d="M1230 1299h-502v-1299h-202v1299h-498v180h1202v-180z" />
<glyph unicode="U" horiz-adv-x="1489" d="M1327 486q0 -105 -35.5 -195.5t-106 -162t-187 -113.5t-268.5 -43q-282 0 -423.5 130.5t-145.5 373.5v1003h202v-965q0 -171 95 -269t272 -98q180 0 285.5 94.5t110.5 268.5v969h201v-993z" />
<glyph unicode="V" horiz-adv-x="1375" d="M1330 1479l-538 -1479h-214l-538 1479h233l419 -1263l436 1263h202z" />
<glyph unicode="W" horiz-adv-x="1941" d="M1911 1479l-392 -1479h-208l-337 1225l-346 -1225h-211l-384 1479h216l272 -1206l339 1206h216l339 -1206l273 1206h223z" />
<glyph unicode="X" horiz-adv-x="1375" d="M1332 0h-249l-396 607l-410 -607h-239l529 759l-498 720h251l375 -566l376 566h240l-496 -723z" />
<glyph unicode="Y" horiz-adv-x="1375" d="M1342 1479l-557 -889v-590h-200v590l-554 889h242l422 -711l424 711h223z" />
<glyph unicode="Z" horiz-adv-x="1256" d="M1209 0h-1162v164l906 1137h-839v178h1095v-173l-910 -1126h910v-180z" />
<glyph unicode="a" horiz-adv-x="1147" d="M1093 2v-2q-57 -21 -119 -21q-168 0 -173 161q-154 -166 -389 -173q-151 0 -246 89t-95 214q0 60 15.5 109t39.5 82.5t64 60.5t76.5 42.5t91 29.5t93.5 20.5t98 16.5t91 16q82 14 117 50.5t35 79.5q0 83 -63.5 133t-185.5 50q-110 0 -176.5 -53t-70.5 -160h-168
q0 147 111.5 250.5t327.5 107.5q106 0 195.5 -32.5t150.5 -106.5t61 -179v-576q0 -60 22.5 -82t96.5 4v-131zM787 358v194q-29 -19 -84 -34t-111.5 -23.5t-117.5 -25t-108 -37.5t-77.5 -62t-30.5 -97q0 -78 52 -118.5t140 -40.5q51 0 109 17t109.5 47t85 77.5t33.5 102.5z
" />
<glyph unicode="b" horiz-adv-x="1147" d="M1088 569q3 -85 -10.5 -166.5t-48 -161.5t-88 -140t-138.5 -97t-191 -37q-104 0 -187.5 42.5t-130.5 123.5l-14 -133h-164v1479h185v-538q59 78 138.5 119t191.5 45q197 0 323.5 -149.5t133.5 -386.5zM898 538q0 198 -79 301.5t-222 103.5q-82 0 -143.5 -38.5t-95 -100.5
t-49 -128.5t-15.5 -135.5q0 -404 313 -414q140 0 215.5 112.5t75.5 299.5z" />
<glyph unicode="c" horiz-adv-x="1029" d="M991 379q-12 -111 -57 -194t-111 -129t-138 -67.5t-149 -21.5q-203 0 -340 158.5t-137 412.5q0 140 39.5 251t107 179t153.5 103.5t184 35.5q62 0 119.5 -11.5t114.5 -40t100.5 -71.5t74.5 -112t39 -156h-173q-10 106 -83.5 166.5t-184.5 60.5q-63 0 -114.5 -21t-94 -66
t-66.5 -126t-24 -192q0 -170 85 -287.5t214 -117.5q109 0 176.5 62t88.5 184h176z" />
<glyph unicode="d" horiz-adv-x="1147" d="M64 569q7 237 133.5 386.5t323.5 149.5q113 -4 191.5 -45t138.5 -119v538h185v-1479h-164v152q-48 -82 -139.5 -133.5t-192.5 -51.5q-106 0 -191 37t-138.5 97t-88 140t-48 161.5t-10.5 166.5zM254 538q0 -187 75.5 -299.5t215.5 -112.5q313 10 313 414q0 69 -15.5 135.5
t-48.5 128.5t-94.5 100.5t-144.5 38.5q-143 0 -222 -103.5t-79 -301.5z" />
<glyph unicode="e" horiz-adv-x="1147" d="M1074 476h-804q0 -150 91.5 -246.5t226.5 -96.5q68 0 125 22t91 54.5t52.5 66.5t18.5 61h185q-30 -172 -161 -270t-321 -98q-114 0 -209 42.5t-157 116t-97 171t-37 208.5q0 270 139.5 436t365.5 166q160 0 273.5 -81.5t168 -223.5t49.5 -328zM884 623q0 144 -87 234.5
t-212 90.5q-128 0 -219 -95.5t-96 -229.5h614z" />
<glyph unicode="f" horiz-adv-x="569" d="M538 1493v-149q-31 5 -76 5q-54 0 -76.5 -25t-22.5 -84v-164h175v-163h-175v-913h-185v913h-150v163h150v199q0 98 73.5 164t191.5 66q55 0 95 -12z" />
<glyph unicode="g" horiz-adv-x="1228" d="M1086 47q0 -262 -128 -390.5t-358 -128.5q-33 0 -66 3t-75 12.5t-79.5 24.5t-74.5 41.5t-63.5 61t-43.5 85t-18 111.5h180q0 -80 68 -125t160 -45q150 0 233.5 83t83.5 253v64q-65 -70 -145.5 -99t-183.5 -29q-84 0 -166.5 36.5t-151 103t-112 171.5t-46.5 230
q0 277 139.5 436t362.5 159q98 0 180 -42t123 -110v130h181v-1036zM905 536q0 180 -82.5 283t-227.5 103q-56 0 -109 -23t-97 -67t-70.5 -116.5t-26.5 -163.5q0 -106 26.5 -189.5t71.5 -132.5t99 -74.5t113 -25.5q132 0 216 107.5t87 298.5z" />
<glyph unicode="h" horiz-adv-x="1147" d="M1012 0h-185v704q0 117 -50 178t-161 61q-61 0 -113.5 -21t-96 -62.5t-68.5 -112t-25 -162.5v-585h-185v1479h185v-547q55 85 147 128t187 47q55 0 104 -10.5t98 -38t84 -70.5t57 -112.5t22 -159.5v-716z" />
<glyph unicode="i" horiz-adv-x="460" d="M318 1271h-185v203h185v-203zM318 0h-185v1076h185v-1076z" />
<glyph unicode="j" horiz-adv-x="543" d="M405 -185q0 -106 -70 -175t-200 -69q-59 0 -92 7v157q41 -10 83 -10q51 0 72.5 29t21.5 101v1221h185v-1261zM405 1271h-185v208h185v-208z" />
<glyph unicode="k" horiz-adv-x="1029" d="M1029 0h-230l-356 526l-130 -128v-398h-185v1479h185v-860l460 457h232l-429 -412z" />
<glyph unicode="l" horiz-adv-x="460" d="M320 0h-187v1479h187v-1479z" />
<glyph unicode="m" horiz-adv-x="1711" d="M1586 0h-185v695q0 248 -199 248q-108 0 -177 -78t-74 -211v-654h-185v742q0 84 -42 142.5t-131 58.5q-53 0 -99.5 -18.5t-87 -58t-65 -112t-26.5 -169.5v-585h-185v1076h171v-152q57 89 144 135t186 46q113 0 179.5 -46t109.5 -127q46 72 131 122.5t198 50.5
q42 0 84 -8.5t89 -33.5t82 -63.5t58.5 -105t23.5 -152.5v-742z" />
<glyph unicode="n" horiz-adv-x="1147" d="M1012 0h-185v673q0 61 -10 107.5t-33 84.5t-65.5 58t-102.5 20q-130 0 -216.5 -88.5t-86.5 -240.5v-614h-185v1076h175v-156q15 24 43.5 52.5t72 60t104 52t124.5 20.5q166 0 265.5 -96t99.5 -293v-716z" />
<glyph unicode="o" horiz-adv-x="1147" d="M1081 538q0 -112 -34.5 -213t-97.5 -179.5t-159.5 -126t-213.5 -50.5q-94 0 -175 30.5t-140.5 84t-102 125t-64 155.5t-21.5 174q0 155 58 283t174 207t271 79t271.5 -79t175 -207t58.5 -283zM891 538q1 68 -16.5 136t-53.5 129.5t-100 101t-145 41.5q-80 0 -143 -39
t-98.5 -101.5t-53.5 -131t-18 -136.5q0 -81 18 -152.5t54 -130.5t98 -93t143 -34q82 0 143.5 34t97 93.5t53.5 129.5t21 153z" />
<glyph unicode="p" horiz-adv-x="1147" d="M1090 507q-7 -237 -134 -386t-325 -149q-112 3 -190 44t-138 119v-562h-187v1503h166v-152q48 82 139.5 133.5t192.5 51.5q106 0 191 -37t138.5 -97t88.5 -140t48 -161.5t10 -166.5zM901 538q0 187 -76 300t-216 113q-160 -6 -236.5 -114t-76.5 -301q0 -69 15.5 -135
t48.5 -128.5t95 -101t145 -38.5q143 0 222 103.5t79 301.5z" />
<glyph unicode="q" horiz-adv-x="1147" d="M45 507q0 85 14 166t48.5 161.5t87 140t136.5 97t190 37.5q103 0 186 -42.5t130 -123.5l16 133h166v-1503h-185v562q-62 -78 -140 -119t-189 -44q-201 0 -328 143.5t-132 391.5zM235 538q0 -198 80 -301.5t223 -103.5q66 0 119 26t86.5 67t55.5 95.5t31 107.5t9 107
q0 404 -313 415q-140 0 -215.5 -113t-75.5 -300z" />
<glyph unicode="r" horiz-adv-x="683" d="M609 913q-154 0 -250 -71.5t-96 -196.5v-645h-185v1076h178v-182q94 206 353 206v-187z" />
<glyph unicode="s" horiz-adv-x="1029" d="M960 325q0 -155 -113.5 -256.5t-310.5 -101.5q-97 0 -176 20.5t-142.5 64.5t-101.5 118.5t-45 175.5h178q0 -220 287 -220q101 0 172.5 43t71.5 125q0 44 -23 70t-102 55t-247 69q-48 12 -81.5 22.5t-78 32.5t-72 49t-47.5 71.5t-20 99.5q0 163 114.5 253.5t293.5 90.5
q99 0 175.5 -26t118.5 -63t69.5 -86.5t36 -87.5t10.5 -76h-176q0 88 -64 134t-189 46q-15 0 -30 -1t-42 -5.5t-49 -14.5t-44.5 -26t-35.5 -43t-15 -62q0 -66 62.5 -95.5t267.5 -78.5q23 -5 35 -8q55 -15 95.5 -30t83.5 -39t70 -53t45 -71.5t19 -95.5z" />
<glyph unicode="t" horiz-adv-x="569" d="M538 128v-152q-57 -12 -95 -12q-118 0 -191.5 67t-73.5 163v719h-140v163h140v304h185v-304h175v-163h-175v-681q0 -59 22.5 -85t76.5 -26q33 0 76 7z" />
<glyph unicode="u" horiz-adv-x="1147" d="M116 1076h187v-673q0 -61 10 -107.5t33 -84.5t65.5 -58t102.5 -20q129 0 216.5 89t87.5 240v614h185v-1076h-178v156q-14 -24 -43 -52.5t-72 -59.5t-104 -51.5t-125 -20.5q-166 0 -265.5 95.5t-99.5 292.5v716z" />
<glyph unicode="v" horiz-adv-x="1029" d="M988 1076l-410 -1076h-194l-391 1076h206l294 -882l301 882h194z" />
<glyph unicode="w" horiz-adv-x="1489" d="M1458 1076l-311 -1076h-189l-216 832l-216 -832h-189l-309 1076h197l204 -848l220 848h202l211 -848l216 848h180z" />
<glyph unicode="x" horiz-adv-x="1029" d="M1007 0h-232l-265 405l-261 -405h-228l380 555l-361 521h233l248 -381l252 381h218l-363 -524z" />
<glyph unicode="y" horiz-adv-x="1029" d="M1007 1076q-166 -472 -314.5 -865.5t-182.5 -461.5q-66 -133 -149 -171.5t-235 -4.5v166q35 -13 63.5 -18.5t60 -3t58 22t45.5 56.5l74 171l-403 1109h204l293 -879l292 879h194z" />
<glyph unicode="z" horiz-adv-x="1029" d="M965 0h-901v140l647 784h-597v152h829v-149l-642 -780h664v-147z" />
</font>
</defs>
</svg>
